<?xml version="1.0" standalone="no"?>
<!DOCTYPE svg PUBLIC "-//W3C//DTD SVG 20010904//EN"
 "http://www.w3.org/TR/2001/REC-SVG-20010904/DTD/svg10.dtd">
<svg version="1.0" xmlns="http://www.w3.org/2000/svg"
 width="129.000000pt" height="129.000000pt" viewBox="0 0 129.000000 129.000000"
 preserveAspectRatio="xMidYMid meet">
<metadata>
Created by potrace 1.14, written by Peter Selinger 2001-2017
</metadata>
<g transform="translate(0.000000,129.000000) scale(0.100000,-0.100000)"
fill="#000000" stroke="none">
<path d="M633 1254 c-18 -13 -53 -34 -78 -45 -50 -22 -62 -45 -17 -34 27 6 89
40 127 69 14 10 17 18 10 25 -7 7 -20 2 -42 -15z"/>
<path d="M725 1251 c-7 -13 2 -18 82 -42 89 -28 156 -62 181 -94 20 -25 114
-75 141 -75 8 0 12 -3 8 -6 -3 -3 14 -35 38 -71 69 -102 101 -273 69 -362 -10
-28 -22 -51 -27 -51 -5 0 -7 -12 -4 -27 8 -40 -15 -85 -61 -121 -22 -18 -42
-32 -45 -32 -2 0 0 20 5 44 11 53 7 161 -7 161 -5 0 -13 -40 -16 -90 -4 -55
-15 -112 -28 -146 -78 -205 -294 -331 -493 -290 -207 43 -368 244 -368 459 0
38 -4 53 -12 50 -19 -7 -21 -77 -4 -149 8 -35 13 -66 11 -68 -7 -7 -54 29 -69
52 -7 12 -16 39 -19 59 -5 30 -2 38 13 43 11 3 22 16 26 28 3 12 15 32 26 43
15 17 16 24 7 30 -14 8 -59 -38 -59 -62 0 -9 -11 -14 -32 -14 -30 0 -33 3 -35
32 -2 18 -8 45 -14 60 -14 34 7 142 23 114 19 -33 24 -13 20 78 -5 116 6 152
64 205 43 40 55 61 34 61 -20 0 -94 -76 -111 -115 -12 -26 -19 -64 -19 -108 0
-42 -6 -76 -14 -90 -8 -12 -20 -42 -25 -67 -9 -38 -7 -57 12 -119 15 -50 28
-76 40 -79 11 -3 17 -14 17 -33 0 -62 49 -133 100 -144 20 -4 39 -24 68 -69
208 -321 630 -307 813 27 18 34 45 63 81 87 64 44 98 91 98 136 0 19 5 34 10
34 6 0 10 8 10 17 0 10 7 37 17 61 15 40 15 50 -1 150 -18 111 -44 182 -90
242 l-27 35 43 5 c66 8 47 24 -34 30 -79 6 -144 33 -165 69 -16 26 -90 64
-189 96 -89 29 -81 28 -89 16z"/>
<path d="M455 1215 c-49 -12 -138 -45 -178 -66 -12 -7 -16 -14 -10 -20 6 -6
37 2 81 21 39 16 94 35 121 41 47 10 62 21 44 32 -5 2 -30 -1 -58 -8z"/>
<path d="M687 1204 c-3 -3 5 -25 17 -49 13 -23 26 -53 29 -66 5 -18 9 -21 18
-12 9 9 8 22 -5 56 -17 45 -48 82 -59 71z"/>
<path d="M886 1153 c-12 -12 -6 -24 36 -69 43 -46 85 -74 113 -74 25 0 17 17
-15 30 -17 7 -52 37 -79 66 -27 29 -51 50 -55 47z"/>
<path d="M215 1088 c-4 -35 -14 -80 -22 -101 -17 -41 -12 -57 11 -38 27 23 52
190 30 198 -8 3 -14 -18 -19 -59z"/>
<path d="M321 1062 c-54 -53 -61 -66 -90 -155 -33 -102 -41 -172 -19 -165 7 3
16 25 19 49 4 24 17 78 29 119 21 67 30 82 87 137 34 35 63 65 63 68 0 19 -38
-4 -89 -53z"/>
<path d="M442 1063 c-12 -32 -24 -69 -27 -83 -4 -14 -9 -33 -11 -42 -3 -11 0
-18 8 -18 8 0 25 36 41 88 16 48 31 93 34 100 2 6 -2 12 -10 12 -9 0 -23 -23
-35 -57z"/>
<path d="M530 948 c-22 -86 -42 -143 -57 -160 -22 -24 -6 -44 18 -22 20 18 69
159 69 200 0 39 -18 28 -30 -18z"/>
<path d="M627 983 c-2 -5 -10 -26 -17 -48 -7 -22 -26 -68 -42 -103 -31 -66
-30 -94 2 -54 20 25 80 172 80 197 0 15 -16 21 -23 8z"/>
<path d="M925 968 c23 -77 34 -137 28 -167 -4 -26 -3 -33 8 -29 34 11 7 218
-28 218 -11 0 -13 -6 -8 -22z"/>
<path d="M709 898 c-17 -35 -42 -78 -56 -96 -26 -35 -24 -54 5 -36 18 12 101
160 102 182 0 29 -22 7 -51 -50z"/>
<path d="M799 868 c-6 -13 -31 -48 -55 -80 -46 -59 -51 -68 -34 -68 22 0 120
127 120 154 0 23 -18 19 -31 -6z"/>
<path d="M1110 861 c0 -4 4 -21 10 -37 5 -16 11 -53 12 -83 4 -73 28 -83 28
-11 0 68 -19 140 -36 140 -8 0 -14 -4 -14 -9z"/>
<path d="M375 784 c-53 -20 -90 -57 -105 -107 -6 -23 -19 -49 -27 -59 -10 -11
-11 -18 -3 -23 17 -11 39 14 52 59 15 55 51 91 104 106 25 7 43 18 41 23 -5
17 -19 17 -62 1z"/>
<path d="M1125 651 c-3 -6 -1 -19 5 -30 5 -11 10 -31 10 -45 0 -28 14 -35 24
-11 13 35 -22 113 -39 86z"/>
<path d="M341 551 c-14 -4 -27 -13 -29 -20 -3 -10 5 -12 39 -6 36 6 42 5 32
-6 -16 -17 -17 -61 -1 -77 7 -7 26 -12 43 -12 17 0 36 5 43 12 20 20 14 64
-10 82 l-23 16 25 -4 c14 -3 37 -7 53 -11 19 -4 27 -1 27 9 0 8 -7 17 -16 20
-21 8 -152 6 -183 -3z m109 -72 c0 -27 -28 -35 -48 -15 -16 16 -16 18 1 31 24
17 47 9 47 -16z"/>
<path d="M768 548 c-45 -16 -33 -30 20 -22 46 7 47 6 30 -13 -22 -24 -23 -47
-2 -67 25 -25 71 -20 90 10 16 24 16 26 -5 54 l-21 30 32 -6 c18 -3 38 -7 45
-9 21 -7 24 14 4 24 -25 14 -157 13 -193 -1z m122 -67 c0 -16 -27 -31 -44 -25
-19 7 -21 25 -4 42 12 12 48 -1 48 -17z"/>
<path d="M603 238 c5 -17 69 -17 75 0 2 8 -9 12 -38 12 -29 0 -40 -4 -37 -12z"/>
</g>
</svg>
