<svg width="341" height="749" viewBox="0 0 341 749" fill="none" xmlns="http://www.w3.org/2000/svg">
<g clip-path="url(#clip0_440_1229)">
<path d="M106.997 290.601L106.997 58.751L0.0335846 58.751L0.0335846 290.601H106.997Z" fill="#231815"/>
<path d="M242.329 641.53L242.329 563.453L-1.52588e-05 563.453L-1.52588e-05 641.53L242.329 641.53Z" fill="#231815"/>
<path d="M151.414 745.645L151.414 671.896H0.235016L0.235016 745.645H151.414Z" fill="#231815"/>
<path d="M52.1051 671.896L52.1051 641.53H0.0335693L0.0335693 671.896H52.1051Z" fill="#231815"/>
<path d="M94.7763 563.453L94.7763 480.309L0.0335846 480.309L0.0335846 563.453H94.7763Z" fill="#231815"/>
<path d="M136.004 460.815L136.004 315.497L0 315.497L0 460.815L136.004 460.815Z" fill="#231815"/>
<path d="M47.405 480.342L47.405 460.815H0.0335922L0.0335922 480.342H47.405Z" fill="#231815"/>
<path d="M262.607 460.815V393.575L0.0335999 393.575V460.815L262.607 460.815Z" fill="#231815"/>
<path d="M93.0106 480.309L154.487 480.309L207.011 510.339L185.208 530.907H93.0106" fill="#231815"/>
<path d="M75.6733 315.497L75.6733 171.489L0.268562 171.489L0.268562 315.497H75.6733Z" fill="#231815"/>
<path d="M180.354 290.601L180.354 171.489L0.0335693 171.489L0.0335693 290.601L180.354 290.601Z" fill="#231815"/>
<path d="M217.922 256.612L217.922 171.489L175.592 171.489L175.592 256.612H217.922Z" fill="#231815"/>
<path d="M217.922 256.612H249.816L283.389 217.624L275.399 206.283L217.922 206.283" fill="#231815"/>
<path d="M341 150.082V76.5676L0 76.5676V150.082L341 150.082Z" fill="#231815"/>
<path d="M154.67 76.5676V58.751L0 58.751V76.5676L154.67 76.5676Z" fill="#231815"/>
<path d="M232.727 47.276L232.727 0L-1.52588e-05 0L-1.52588e-05 47.276L232.727 47.276Z" fill="#231815"/>
<path d="M30.3499 150.082L30.3499 0L0.0335827 0L0.0335827 150.082H30.3499Z" fill="#231815"/>
<path d="M221.178 632.672L221.178 571.505H213.524L213.524 632.672H221.178Z" fill="white"/>
<path d="M210.838 632.672L210.838 571.505H207.011L207.011 632.672H210.838Z" fill="white"/>
<path d="M192.675 632.672L192.675 571.505H185.02L185.02 632.672H192.675Z" fill="white"/>
<path d="M182.368 632.672L182.368 571.505H178.541L178.541 632.672H182.368Z" fill="white"/>
<path d="M165.145 632.672L165.145 571.505H157.491L157.491 632.672H165.145Z" fill="white"/>
<path d="M154.838 632.672L154.838 571.505H151.011L151.011 632.672H154.838Z" fill="white"/>
<path d="M136.239 632.672L136.239 571.505H128.584L128.584 632.672H136.239Z" fill="white"/>
<path d="M125.898 632.672L125.898 571.505H122.071L122.071 632.672H125.898Z" fill="white"/>
<path d="M109.146 632.672L109.146 571.505H101.491L101.491 632.672H109.146Z" fill="white"/>
<path d="M98.8387 632.672L98.8387 571.505H95.0113L95.0113 632.672H98.8387Z" fill="white"/>
<path d="M81.1457 632.672L81.1457 607.105H72.5511L72.5511 632.672H81.1457Z" fill="white"/>
<path d="M70.3352 632.672L70.3352 607.105H65.2657L65.2657 632.672H70.3352Z" fill="white"/>
<path d="M52.3066 632.672L52.3066 607.105H44.2491L44.2491 632.672H52.3066Z" fill="white"/>
<path d="M42.0668 632.672L42.0668 607.105H37.6016L37.6016 632.672H42.0668Z" fill="white"/>
<path d="M83.9994 567.412V555.97H76.8484V567.412H83.9994Z" fill="white"/>
<path d="M70.3352 566.137V555.97H63.3521V566.137H70.3352Z" fill="white"/>
<path d="M56.6711 566.137V555.97H50.3258V566.137H56.6711Z" fill="white"/>
<path d="M44.2827 567.412L44.2827 555.97H37.6017V567.412H44.2827Z" fill="white"/>
<path d="M83.9994 582.343V572.814H76.8484V582.343H83.9994Z" fill="white"/>
<path d="M70.3352 582.343V572.814H63.3521V582.343H70.3352Z" fill="white"/>
<path d="M56.6711 582.343V572.814H50.3258V582.343H56.6711Z" fill="white"/>
<path d="M44.2827 581.404V572.814H37.6017V581.404H44.2827Z" fill="white"/>
<path d="M83.9994 592.476V587.41H76.6805V592.476H83.9994Z" fill="white"/>
<path d="M70.3352 592.476V587.41H63.3521V592.476H70.3352Z" fill="white"/>
<path d="M56.6711 592.476V587.41H51.6016V592.476H56.6711Z" fill="white"/>
<path d="M151.011 500.273V493.395H144.128V500.273H151.011Z" fill="white"/>
<path d="M151.011 512.486V505.608H144.128V512.486H151.011Z" fill="white"/>
<path d="M140.268 512.486V493.395H136.205V512.486H140.268Z" fill="white"/>
<path d="M127.308 500.273V493.395H120.426V500.273H127.308Z" fill="white"/>
<path d="M127.308 512.486V505.608H120.426V512.486H127.308Z" fill="white"/>
<path d="M116.565 512.486V493.395H112.503V512.486H116.565Z" fill="white"/>
<path d="M103.27 500.273V493.395H96.3878V500.273H103.27Z" fill="white"/>
<path d="M103.27 512.486V505.608H96.3878V512.486H103.27Z" fill="white"/>
<path d="M92.5605 512.486V493.395H88.4982V512.486H92.5605Z" fill="white"/>
<path d="M79.9371 500.273V493.395H73.0547V500.273H79.9371Z" fill="white"/>
<path d="M79.9371 512.486V505.608H73.0547V512.486H79.9371Z" fill="white"/>
<path d="M69.1938 512.486V493.395H65.1314V512.486H69.1938Z" fill="white"/>
<path d="M240.483 416.626V410.183H229.639V416.626H240.483Z" fill="white"/>
<path d="M213.524 437.227V431.825H202.243V437.227H213.524Z" fill="white"/>
<path d="M200.867 416.626V410.183H191.063V416.626H200.867Z" fill="white"/>
<path d="M173.807 429.443V423.37H161.351V429.443H173.807Z" fill="white"/>
<path d="M123.985 333.348V323.919H114.551V333.348H123.985Z" fill="white"/>
<path d="M111.16 333.348V323.919H107.433V333.348H111.16Z" fill="white"/>
<path d="M123.985 345.896V336.468H114.551V345.896H123.985Z" fill="white"/>
<path d="M111.16 345.896V336.468H107.433V345.896H111.16Z" fill="white"/>
<path d="M123.985 361.465V352.036H114.551V361.465H123.985Z" fill="white"/>
<path d="M111.16 361.465V352.036H107.433V361.465H111.16Z" fill="white"/>
<path d="M123.985 373.98V364.552H114.551V373.98H123.985Z" fill="white"/>
<path d="M111.16 373.98V364.552H107.433V373.98H111.16Z" fill="white"/>
<path d="M123.985 389.884V380.456H114.551V389.884H123.985Z" fill="white"/>
<path d="M111.16 389.884V380.456H107.433V389.884H111.16Z" fill="white"/>
<path d="M123.985 402.399V392.971H114.551V402.399H123.985Z" fill="white"/>
<path d="M111.16 402.399V392.971H107.433V402.399H111.16Z" fill="white"/>
<path d="M123.985 418.102V408.674H114.551V418.102H123.985Z" fill="white"/>
<path d="M111.16 418.102V408.674H107.433V418.102H111.16Z" fill="white"/>
<path d="M123.985 430.651V421.222H114.551V430.651H123.985Z" fill="white"/>
<path d="M111.16 430.651V421.222H107.433V430.651H111.16Z" fill="white"/>
<path d="M97.2607 333.348V323.919H87.8267V333.348H97.2607Z" fill="white"/>
<path d="M84.4359 333.348V323.919H80.7093V333.348H84.4359Z" fill="white"/>
<path d="M97.2607 345.896V336.468H87.8267V345.896H97.2607Z" fill="white"/>
<path d="M84.4359 345.896V336.468H80.7093V345.896H84.4359Z" fill="white"/>
<path d="M97.2607 361.465V352.036H87.8267V361.465H97.2607Z" fill="white"/>
<path d="M84.4359 361.465V352.036H80.7093V361.465H84.4359Z" fill="white"/>
<path d="M97.2607 373.98V364.552H87.8267V373.98H97.2607Z" fill="white"/>
<path d="M84.4359 373.98V364.552H80.7093V373.98H84.4359Z" fill="white"/>
<path d="M97.2607 389.884V380.456H87.8267V389.884H97.2607Z" fill="white"/>
<path d="M84.4359 389.884V380.456H80.7093V389.884H84.4359Z" fill="white"/>
<path d="M97.2607 402.399V392.971H87.8267V402.399H97.2607Z" fill="white"/>
<path d="M84.4359 402.399V392.971H80.7093V402.399H84.4359Z" fill="white"/>
<path d="M97.2607 418.102V408.674H87.8267V418.102H97.2607Z" fill="white"/>
<path d="M84.4359 418.102V408.674H80.7093V418.102H84.4359Z" fill="white"/>
<path d="M97.2607 430.651V421.222H87.8267V430.651H97.2607Z" fill="white"/>
<path d="M84.4359 430.651V421.222H80.7093V430.651H84.4359Z" fill="white"/>
<path d="M69.8652 333.348V323.919H60.4313V333.348H69.8652Z" fill="white"/>
<path d="M57.0739 333.348V323.919H53.3473V333.348H57.0739Z" fill="white"/>
<path d="M69.8652 345.896V336.468H60.4313V345.896H69.8652Z" fill="white"/>
<path d="M57.0739 345.896V336.468H53.3473V345.896H57.0739Z" fill="white"/>
<path d="M69.8652 361.465V352.036H60.4313V361.465H69.8652Z" fill="white"/>
<path d="M57.0739 361.465V352.036H53.3473V361.465H57.0739Z" fill="white"/>
<path d="M69.8652 373.98V364.552H60.4313V373.98H69.8652Z" fill="white"/>
<path d="M57.0739 373.98V364.552H53.3473V373.98H57.0739Z" fill="white"/>
<path d="M69.8652 389.884V380.456H60.4313V389.884H69.8652Z" fill="white"/>
<path d="M57.0739 389.884V380.456H53.3473V389.884H57.0739Z" fill="white"/>
<path d="M69.8652 402.399V392.971H60.4313V402.399H69.8652Z" fill="white"/>
<path d="M57.0739 402.399V392.971H53.3473V402.399H57.0739Z" fill="white"/>
<path d="M69.8652 418.102V408.674H60.4313V418.102H69.8652Z" fill="white"/>
<path d="M57.0739 418.102V408.674H53.3473V418.102H57.0739Z" fill="white"/>
<path d="M69.8652 430.651V421.222H60.4313V430.651H69.8652Z" fill="white"/>
<path d="M57.0739 430.651V421.222H53.3473V430.651H57.0739Z" fill="white"/>
<path d="M42.3354 333.348V323.919H32.9014V333.348H42.3354Z" fill="white"/>
<path d="M29.5106 333.348L29.5106 323.919H25.784L25.784 333.348H29.5106Z" fill="white"/>
<path d="M42.3354 345.896V336.468H32.9014V345.896H42.3354Z" fill="white"/>
<path d="M29.5106 345.896L29.5106 336.468H25.784L25.784 345.896H29.5106Z" fill="white"/>
<path d="M42.3354 361.465V352.036H32.9014V361.465H42.3354Z" fill="white"/>
<path d="M29.5106 361.465L29.5106 352.036H25.784L25.784 361.465H29.5106Z" fill="white"/>
<path d="M42.3354 373.98V364.552H32.9014V373.98H42.3354Z" fill="white"/>
<path d="M29.5106 373.98L29.5106 364.552H25.784L25.784 373.98H29.5106Z" fill="white"/>
<path d="M42.3354 389.884V380.456H32.9014V389.884H42.3354Z" fill="white"/>
<path d="M29.5106 389.884L29.5106 380.456H25.784L25.784 389.884H29.5106Z" fill="white"/>
<path d="M42.3354 402.399V392.971H32.9014V402.399H42.3354Z" fill="white"/>
<path d="M29.5106 402.399L29.5106 392.971H25.784L25.784 402.399H29.5106Z" fill="white"/>
<path d="M42.3354 418.102V408.674H32.9014V418.102H42.3354Z" fill="white"/>
<path d="M29.5106 418.102L29.5106 408.674H25.784L25.784 418.102H29.5106Z" fill="white"/>
<path d="M42.3354 430.651V421.222H32.9014V430.651H42.3354Z" fill="white"/>
<path d="M29.5106 430.651L29.5106 421.222H25.784L25.784 430.651H29.5106Z" fill="white"/>
<path d="M242.329 644.886L242.329 566.808L-1.52588e-05 566.808L-1.52588e-05 644.886L242.329 644.886Z" fill="#231815"/>
<path d="M151.414 749L151.414 675.251H0.235016L0.235016 749H151.414Z" fill="#231815"/>
<path d="M52.3066 675.251L52.3066 644.885H0.234989L0.234989 675.251H52.3066Z" fill="#231815"/>
<path d="M94.7763 566.808L94.7763 483.664L0.0335846 483.664L0.0335846 566.808H94.7763Z" fill="#231815"/>
<path d="M136.004 464.17L136.004 318.853L0 318.853L0 464.17L136.004 464.17Z" fill="#231815"/>
<path d="M47.405 483.698L47.405 464.17H0.0335922L0.0335922 483.698H47.405Z" fill="#231815"/>
<path d="M262.607 464.17V396.93L0.0335999 396.93V464.17L262.607 464.17Z" fill="#231815"/>
<path d="M221.178 636.061L221.178 574.894H213.524L213.524 636.061H221.178Z" fill="white"/>
<path d="M210.838 636.061L210.838 574.894H207.011L207.011 636.061H210.838Z" fill="white"/>
<path d="M192.675 636.061L192.675 574.894H185.02L185.02 636.061H192.675Z" fill="white"/>
<path d="M182.368 636.061L182.368 574.894H178.541L178.541 636.061H182.368Z" fill="white"/>
<path d="M165.145 636.061L165.145 574.894H157.491L157.491 636.061H165.145Z" fill="white"/>
<path d="M154.838 636.061L154.838 574.894H151.011L151.011 636.061H154.838Z" fill="white"/>
<path d="M136.239 636.061L136.239 574.894H128.584L128.584 636.061H136.239Z" fill="white"/>
<path d="M125.898 636.061L125.898 574.894H122.071L122.071 636.061H125.898Z" fill="white"/>
<path d="M109.146 636.061L109.146 574.894H101.491L101.491 636.061H109.146Z" fill="white"/>
<path d="M98.8387 636.061L98.8387 574.894H95.0113L95.0113 636.061H98.8387Z" fill="white"/>
<path d="M81.1457 636.028L81.1457 610.46H72.5511L72.5511 636.028H81.1457Z" fill="white"/>
<path d="M70.3352 636.028L70.3352 610.46H65.2657L65.2657 636.028H70.3352Z" fill="white"/>
<path d="M52.3066 636.028L52.3066 610.46H44.2491L44.2491 636.028H52.3066Z" fill="white"/>
<path d="M42.0668 636.028L42.0668 610.46H37.6016L37.6016 636.028H42.0668Z" fill="white"/>
<path d="M83.9994 570.767V559.326H76.8484V570.767H83.9994Z" fill="white"/>
<path d="M70.3352 569.492V559.326H63.3521V569.492H70.3352Z" fill="white"/>
<path d="M56.6711 569.492V559.326H50.3258V569.492H56.6711Z" fill="white"/>
<path d="M44.2827 570.767L44.2827 559.326H37.6017V570.767H44.2827Z" fill="white"/>
<path d="M83.9994 585.698V576.169H76.8484V585.698H83.9994Z" fill="white"/>
<path d="M70.3352 585.698V576.169H63.3521V585.698H70.3352Z" fill="white"/>
<path d="M56.6711 585.698V576.169H50.3258V585.698H56.6711Z" fill="white"/>
<path d="M44.2827 584.759V576.169H37.6017V584.759H44.2827Z" fill="white"/>
<path d="M83.9994 595.831V590.765H76.6805V595.831H83.9994Z" fill="white"/>
<path d="M70.3352 595.831V590.765H63.3521V595.831H70.3352Z" fill="white"/>
<path d="M56.6711 595.831V590.765H51.6016V595.831H56.6711Z" fill="white"/>
<path d="M151.011 503.628V496.75H144.128V503.628H151.011Z" fill="white"/>
<path d="M151.011 515.841V508.963H144.128V515.841H151.011Z" fill="white"/>
<path d="M140.268 515.841V496.75H136.205V515.841H140.268Z" fill="white"/>
<path d="M127.308 503.628V496.75H120.426V503.628H127.308Z" fill="white"/>
<path d="M127.308 515.841V508.963H120.426V515.841H127.308Z" fill="white"/>
<path d="M116.565 515.841V496.75H112.503V515.841H116.565Z" fill="white"/>
<path d="M103.27 503.628V496.75H96.3878V503.628H103.27Z" fill="white"/>
<path d="M103.27 515.841V508.963H96.3878V515.841H103.27Z" fill="white"/>
<path d="M92.5605 515.841V496.75H88.4982V515.841H92.5605Z" fill="white"/>
<path d="M79.9371 503.628V496.75H73.0547V503.628H79.9371Z" fill="white"/>
<path d="M79.9371 515.841V508.963H73.0547V515.841H79.9371Z" fill="white"/>
<path d="M69.1938 515.841V496.75H65.1314V515.841H69.1938Z" fill="white"/>
<path d="M240.483 419.981V413.539H229.639V419.981H240.483Z" fill="white"/>
<path d="M213.524 440.582V435.18H202.243V440.582H213.524Z" fill="white"/>
<path d="M200.867 419.981V413.539H191.063V419.981H200.867Z" fill="white"/>
<path d="M173.807 432.798V426.725H161.351V432.798H173.807Z" fill="white"/>
<path d="M123.985 336.703V327.274H114.551V336.703H123.985Z" fill="white"/>
<path d="M111.16 336.703V327.274H107.433V336.703H111.16Z" fill="white"/>
<path d="M123.985 349.251V339.823H114.551V349.251H123.985Z" fill="white"/>
<path d="M111.16 349.251V339.823H107.433V349.251H111.16Z" fill="white"/>
<path d="M123.985 364.82V355.392H114.551V364.82H123.985Z" fill="white"/>
<path d="M111.16 364.82V355.392H107.433V364.82H111.16Z" fill="white"/>
<path d="M123.985 377.335V367.907H114.551V377.335H123.985Z" fill="white"/>
<path d="M111.16 377.335V367.907H107.433V377.335H111.16Z" fill="white"/>
<path d="M123.985 393.239V383.811H114.551V393.239H123.985Z" fill="white"/>
<path d="M111.16 393.239V383.811H107.433V393.239H111.16Z" fill="white"/>
<path d="M123.985 405.755V396.326H114.551V405.755H123.985Z" fill="white"/>
<path d="M111.16 405.755V396.326H107.433V405.755H111.16Z" fill="white"/>
<path d="M123.985 421.457V412.029H114.551V421.457H123.985Z" fill="white"/>
<path d="M111.16 421.457V412.029H107.433V421.457H111.16Z" fill="white"/>
<path d="M123.985 434.006V424.578H114.551V434.006H123.985Z" fill="white"/>
<path d="M111.16 434.006V424.578H107.433V434.006H111.16Z" fill="white"/>
<path d="M97.2607 336.703V327.274H87.8267V336.703H97.2607Z" fill="white"/>
<path d="M84.4359 336.703V327.274H80.7093V336.703H84.4359Z" fill="white"/>
<path d="M97.2607 349.251V339.823H87.8267V349.251H97.2607Z" fill="white"/>
<path d="M84.4359 349.251V339.823H80.7093V349.251H84.4359Z" fill="white"/>
<path d="M97.2607 364.82V355.392H87.8267V364.82H97.2607Z" fill="white"/>
<path d="M84.4359 364.82V355.392H80.7093V364.82H84.4359Z" fill="white"/>
<path d="M97.2607 377.335V367.907H87.8267V377.335H97.2607Z" fill="white"/>
<path d="M84.4359 377.335V367.907H80.7093V377.335H84.4359Z" fill="white"/>
<path d="M97.2607 393.239V383.811H87.8267V393.239H97.2607Z" fill="white"/>
<path d="M84.4359 393.239V383.811H80.7093V393.239H84.4359Z" fill="white"/>
<path d="M97.2607 405.755V396.326H87.8267V405.755H97.2607Z" fill="white"/>
<path d="M84.4359 405.755V396.326H80.7093V405.755H84.4359Z" fill="white"/>
<path d="M97.2607 421.457V412.029H87.8267V421.457H97.2607Z" fill="white"/>
<path d="M84.4359 421.457V412.029H80.7093V421.457H84.4359Z" fill="white"/>
<path d="M97.2607 434.006V424.578H87.8267V434.006H97.2607Z" fill="white"/>
<path d="M84.4359 434.006V424.578H80.7093V434.006H84.4359Z" fill="white"/>
<path d="M69.8652 336.703V327.274H60.4313V336.703H69.8652Z" fill="white"/>
<path d="M57.0739 336.703V327.274H53.3473V336.703H57.0739Z" fill="white"/>
<path d="M69.8652 349.251V339.823H60.4313V349.251H69.8652Z" fill="white"/>
<path d="M57.0739 349.251V339.823H53.3473V349.251H57.0739Z" fill="white"/>
<path d="M69.8652 364.82V355.392H60.4313V364.82H69.8652Z" fill="white"/>
<path d="M57.0739 364.82V355.392H53.3473V364.82H57.0739Z" fill="white"/>
<path d="M69.8652 377.335V367.907H60.4313V377.335H69.8652Z" fill="white"/>
<path d="M57.0739 377.335V367.907H53.3473V377.335H57.0739Z" fill="white"/>
<path d="M69.8652 393.239V383.811H60.4313V393.239H69.8652Z" fill="white"/>
<path d="M57.0739 393.239V383.811H53.3473V393.239H57.0739Z" fill="white"/>
<path d="M69.8652 405.755V396.326H60.4313V405.755H69.8652Z" fill="white"/>
<path d="M57.0739 405.755V396.326H53.3473V405.755H57.0739Z" fill="white"/>
<path d="M69.8652 421.457V412.029H60.4313V421.457H69.8652Z" fill="white"/>
<path d="M57.0739 421.457V412.029H53.3473V421.457H57.0739Z" fill="white"/>
<path d="M69.8652 434.006V424.578H60.4313V434.006H69.8652Z" fill="white"/>
<path d="M57.0739 434.006V424.578H53.3473V434.006H57.0739Z" fill="white"/>
<path d="M42.3354 336.703V327.274H32.9014V336.703H42.3354Z" fill="white"/>
<path d="M29.5106 336.703L29.5106 327.274H25.784L25.784 336.703H29.5106Z" fill="white"/>
<path d="M42.3354 349.251V339.823H32.9014V349.251H42.3354Z" fill="white"/>
<path d="M29.5106 349.251L29.5106 339.823H25.784L25.784 349.251H29.5106Z" fill="white"/>
<path d="M42.3354 364.82V355.392H32.9014V364.82H42.3354Z" fill="white"/>
<path d="M29.5106 364.82L29.5106 355.392H25.784L25.784 364.82H29.5106Z" fill="white"/>
<path d="M42.3354 377.335V367.907H32.9014V377.335H42.3354Z" fill="white"/>
<path d="M29.5106 377.335L29.5106 367.907H25.784L25.784 377.335H29.5106Z" fill="white"/>
<path d="M42.3354 393.239V383.811H32.9014V393.239H42.3354Z" fill="white"/>
<path d="M29.5106 393.239L29.5106 383.811H25.784L25.784 393.239H29.5106Z" fill="white"/>
<path d="M42.3354 405.755V396.326H32.9014V405.755H42.3354Z" fill="white"/>
<path d="M29.5106 405.755L29.5106 396.326H25.784L25.784 405.755H29.5106Z" fill="white"/>
<path d="M42.3354 421.457V412.029H32.9014V421.457H42.3354Z" fill="white"/>
<path d="M29.5106 421.457L29.5106 412.029H25.784L25.784 421.457H29.5106Z" fill="white"/>
<path d="M42.3354 434.006V424.578H32.9014V434.006H42.3354Z" fill="white"/>
<path d="M29.5106 434.006L29.5106 424.578H25.784L25.784 434.006H29.5106Z" fill="white"/>
<path d="M242.329 641.53L242.329 563.453L-1.52588e-05 563.453L-1.52588e-05 641.53L242.329 641.53Z" fill="#231815"/>
<path d="M151.414 745.645L151.414 671.896H0.235016L0.235016 745.645H151.414Z" fill="#231815"/>
<path d="M52.1051 671.896L52.1051 641.53H0.0335693L0.0335693 671.896H52.1051Z" fill="#231815"/>
<path d="M221.178 632.672L221.178 571.505H213.524L213.524 632.672H221.178Z" fill="white"/>
<path d="M210.838 632.672L210.838 571.505H207.011L207.011 632.672H210.838Z" fill="white"/>
<path d="M192.675 632.672L192.675 571.505H185.02L185.02 632.672H192.675Z" fill="white"/>
<path d="M182.368 632.672L182.368 571.505H178.541L178.541 632.672H182.368Z" fill="white"/>
<path d="M165.145 632.672L165.145 571.505H157.491L157.491 632.672H165.145Z" fill="white"/>
<path d="M154.838 632.672L154.838 571.505H151.011L151.011 632.672H154.838Z" fill="white"/>
<path d="M136.239 632.672L136.239 571.505H128.584L128.584 632.672H136.239Z" fill="white"/>
<path d="M125.898 632.672L125.898 571.505H122.071L122.071 632.672H125.898Z" fill="white"/>
<path d="M109.146 632.672L109.146 571.505H101.491L101.491 632.672H109.146Z" fill="white"/>
<path d="M98.8387 632.672L98.8387 571.505H95.0113L95.0113 632.672H98.8387Z" fill="white"/>
<path d="M81.1457 632.672L81.1457 607.105H72.5511L72.5511 632.672H81.1457Z" fill="white"/>
<path d="M70.3352 632.672L70.3352 607.105H65.2657L65.2657 632.672H70.3352Z" fill="white"/>
<path d="M52.3066 632.672L52.3066 607.105H44.2491L44.2491 632.672H52.3066Z" fill="white"/>
<path d="M42.0668 632.672L42.0668 607.105H37.6016L37.6016 632.672H42.0668Z" fill="white"/>
<path d="M83.9994 567.412V555.97H76.8484V567.412H83.9994Z" fill="white"/>
<path d="M70.3352 566.137V555.97H63.3521V566.137H70.3352Z" fill="white"/>
<path d="M56.6711 566.137V555.97H50.3258V566.137H56.6711Z" fill="white"/>
<path d="M44.2827 567.412L44.2827 555.97H37.6017V567.412H44.2827Z" fill="white"/>
<path d="M83.9994 582.343V572.814H76.8484V582.343H83.9994Z" fill="white"/>
<path d="M70.3352 582.343V572.814H63.3521V582.343H70.3352Z" fill="white"/>
<path d="M56.6711 582.343V572.814H50.3258V582.343H56.6711Z" fill="white"/>
<path d="M44.2827 581.404V572.814H37.6017V581.404H44.2827Z" fill="white"/>
<path d="M83.9994 592.476V587.41H76.6805V592.476H83.9994Z" fill="white"/>
<path d="M70.3352 592.476V587.41H63.3521V592.476H70.3352Z" fill="white"/>
<path d="M56.6711 592.476V587.41H51.6016V592.476H56.6711Z" fill="white"/>
<path d="M151.011 500.273V493.395H144.128V500.273H151.011Z" fill="white"/>
<path d="M151.011 512.486V505.608H144.128V512.486H151.011Z" fill="white"/>
<path d="M140.268 512.486V493.395H136.205V512.486H140.268Z" fill="white"/>
<path d="M127.308 500.273V493.395H120.426V500.273H127.308Z" fill="white"/>
<path d="M127.308 512.486V505.608H120.426V512.486H127.308Z" fill="white"/>
<path d="M116.565 512.486V493.395H112.503V512.486H116.565Z" fill="white"/>
<path d="M103.27 500.273V493.395H96.3878V500.273H103.27Z" fill="white"/>
<path d="M103.27 512.486V505.608H96.3878V512.486H103.27Z" fill="white"/>
<path d="M92.5605 512.486V493.395H88.4982V512.486H92.5605Z" fill="white"/>
<path d="M79.9371 500.273V493.395H73.0547V500.273H79.9371Z" fill="white"/>
<path d="M79.9371 512.486V505.608H73.0547V512.486H79.9371Z" fill="white"/>
<path d="M69.1938 512.486V493.395H65.1314V512.486H69.1938Z" fill="white"/>
<path d="M240.483 416.626V410.183H229.639V416.626H240.483Z" fill="white"/>
<path d="M213.524 437.227V431.825H202.243V437.227H213.524Z" fill="white"/>
<path d="M235.279 236.849V231.448H223.998V236.849H235.279Z" fill="white"/>
<path d="M200.867 416.626V410.183H191.063V416.626H200.867Z" fill="white"/>
<path d="M173.807 429.443V423.37H161.351V429.443H173.807Z" fill="white"/>
<path d="M262.137 220.14V214.067H249.682V220.14H262.137Z" fill="white"/>
<path d="M123.985 333.348V323.919H114.551V333.348H123.985Z" fill="white"/>
<path d="M111.16 333.348V323.919H107.433V333.348H111.16Z" fill="white"/>
<path d="M123.985 345.896V336.468H114.551V345.896H123.985Z" fill="white"/>
<path d="M111.16 345.896V336.468H107.433V345.896H111.16Z" fill="white"/>
<path d="M123.985 361.465V352.036H114.551V361.465H123.985Z" fill="white"/>
<path d="M111.16 361.465V352.036H107.433V361.465H111.16Z" fill="white"/>
<path d="M123.985 373.98V364.552H114.551V373.98H123.985Z" fill="white"/>
<path d="M111.16 373.98V364.552H107.433V373.98H111.16Z" fill="white"/>
<path d="M123.985 389.884V380.456H114.551V389.884H123.985Z" fill="white"/>
<path d="M111.16 389.884V380.456H107.433V389.884H111.16Z" fill="white"/>
<path d="M123.985 402.399V392.971H114.551V402.399H123.985Z" fill="white"/>
<path d="M111.16 402.399V392.971H107.433V402.399H111.16Z" fill="white"/>
<path d="M123.985 418.102V408.674H114.551V418.102H123.985Z" fill="white"/>
<path d="M111.16 418.102V408.674H107.433V418.102H111.16Z" fill="white"/>
<path d="M123.985 430.651V421.222H114.551V430.651H123.985Z" fill="white"/>
<path d="M111.16 430.651V421.222H107.433V430.651H111.16Z" fill="white"/>
<path d="M97.2607 333.348V323.919H87.8267V333.348H97.2607Z" fill="white"/>
<path d="M84.4359 333.348V323.919H80.7093V333.348H84.4359Z" fill="white"/>
<path d="M97.2607 345.896V336.468H87.8267V345.896H97.2607Z" fill="white"/>
<path d="M84.4359 345.896V336.468H80.7093V345.896H84.4359Z" fill="white"/>
<path d="M97.2607 361.465V352.036H87.8267V361.465H97.2607Z" fill="white"/>
<path d="M84.4359 361.465V352.036H80.7093V361.465H84.4359Z" fill="white"/>
<path d="M97.2607 373.98V364.552H87.8267V373.98H97.2607Z" fill="white"/>
<path d="M84.4359 373.98V364.552H80.7093V373.98H84.4359Z" fill="white"/>
<path d="M97.2607 389.884V380.456H87.8267V389.884H97.2607Z" fill="white"/>
<path d="M84.4359 389.884V380.456H80.7093V389.884H84.4359Z" fill="white"/>
<path d="M97.2607 402.399V392.971H87.8267V402.399H97.2607Z" fill="white"/>
<path d="M84.4359 402.399V392.971H80.7093V402.399H84.4359Z" fill="white"/>
<path d="M97.2607 418.102V408.674H87.8267V418.102H97.2607Z" fill="white"/>
<path d="M84.4359 418.102V408.674H80.7093V418.102H84.4359Z" fill="white"/>
<path d="M97.2607 430.651V421.222H87.8267V430.651H97.2607Z" fill="white"/>
<path d="M84.4359 430.651V421.222H80.7093V430.651H84.4359Z" fill="white"/>
<path d="M69.8652 333.348V323.919H60.4313V333.348H69.8652Z" fill="white"/>
<path d="M57.0739 333.348V323.919H53.3473V333.348H57.0739Z" fill="white"/>
<path d="M69.8652 345.896V336.468H60.4313V345.896H69.8652Z" fill="white"/>
<path d="M57.0739 345.896V336.468H53.3473V345.896H57.0739Z" fill="white"/>
<path d="M69.8652 361.465V352.036H60.4313V361.465H69.8652Z" fill="white"/>
<path d="M57.0739 361.465V352.036H53.3473V361.465H57.0739Z" fill="white"/>
<path d="M69.8652 373.98V364.552H60.4313V373.98H69.8652Z" fill="white"/>
<path d="M57.0739 373.98V364.552H53.3473V373.98H57.0739Z" fill="white"/>
<path d="M69.8652 389.884V380.456H60.4313V389.884H69.8652Z" fill="white"/>
<path d="M57.0739 389.884V380.456H53.3473V389.884H57.0739Z" fill="white"/>
<path d="M69.8652 402.399V392.971H60.4313V402.399H69.8652Z" fill="white"/>
<path d="M57.0739 402.399V392.971H53.3473V402.399H57.0739Z" fill="white"/>
<path d="M69.8652 418.102V408.674H60.4313V418.102H69.8652Z" fill="white"/>
<path d="M57.0739 418.102V408.674H53.3473V418.102H57.0739Z" fill="white"/>
<path d="M69.8652 430.651V421.222H60.4313V430.651H69.8652Z" fill="white"/>
<path d="M57.0739 430.651V421.222H53.3473V430.651H57.0739Z" fill="white"/>
<path d="M42.3354 333.348V323.919H32.9014V333.348H42.3354Z" fill="white"/>
<path d="M29.5106 333.348L29.5106 323.919H25.784L25.784 333.348H29.5106Z" fill="white"/>
<path d="M42.3354 345.896V336.468H32.9014V345.896H42.3354Z" fill="white"/>
<path d="M29.5106 345.896L29.5106 336.468H25.784L25.784 345.896H29.5106Z" fill="white"/>
<path d="M42.3354 361.465V352.036H32.9014V361.465H42.3354Z" fill="white"/>
<path d="M29.5106 361.465L29.5106 352.036H25.784L25.784 361.465H29.5106Z" fill="white"/>
<path d="M42.3354 373.98V364.552H32.9014V373.98H42.3354Z" fill="white"/>
<path d="M29.5106 373.98L29.5106 364.552H25.784L25.784 373.98H29.5106Z" fill="white"/>
<path d="M42.3354 389.884V380.456H32.9014V389.884H42.3354Z" fill="white"/>
<path d="M29.5106 389.884L29.5106 380.456H25.784L25.784 389.884H29.5106Z" fill="white"/>
<path d="M42.3354 402.399V392.971H32.9014V402.399H42.3354Z" fill="white"/>
<path d="M29.5106 402.399L29.5106 392.971H25.784L25.784 402.399H29.5106Z" fill="white"/>
<path d="M42.3354 418.102V408.674H32.9014V418.102H42.3354Z" fill="white"/>
<path d="M29.5106 418.102L29.5106 408.674H25.784L25.784 418.102H29.5106Z" fill="white"/>
<path d="M42.3354 430.651V421.222H32.9014V430.651H42.3354Z" fill="white"/>
<path d="M29.5106 430.651L29.5106 421.222H25.784L25.784 430.651H29.5106Z" fill="white"/>
<path d="M330.928 94.2164V84.788H321.494V94.2164H330.928Z" fill="white"/>
<path d="M318.137 94.2164V84.788H314.41V94.2164H318.137Z" fill="white"/>
<path d="M330.928 106.732V97.3032H321.494V106.732H330.928Z" fill="white"/>
<path d="M318.137 106.732V97.3032H314.41V106.732H318.137Z" fill="white"/>
<path d="M304.204 94.2164V84.788H294.77V94.2164H304.204Z" fill="white"/>
<path d="M291.413 94.2164V84.788H287.686V94.2164H291.413Z" fill="white"/>
<path d="M304.204 106.732V97.3032H294.77V106.732H304.204Z" fill="white"/>
<path d="M291.413 106.732V97.3032H287.686V106.732H291.413Z" fill="white"/>
<path d="M276.842 94.2164V84.788H267.408V94.2164H276.842Z" fill="white"/>
<path d="M264.017 94.2164V84.788H260.291V94.2164H264.017Z" fill="white"/>
<path d="M276.842 106.732V97.3032H267.408V106.732H276.842Z" fill="white"/>
<path d="M264.017 106.732V97.3032H260.291V106.732H264.017Z" fill="white"/>
<path d="M249.279 94.2164V84.788H239.845V94.2164H249.279Z" fill="white"/>
<path d="M236.454 94.2164V84.788H232.727V94.2164H236.454Z" fill="white"/>
<path d="M249.279 106.732V97.3032H239.845V106.732H249.279Z" fill="white"/>
<path d="M236.454 106.732V97.3032H232.727V106.732H236.454Z" fill="white"/>
<path d="M222.186 94.2164V84.788H212.752V94.2164H222.186Z" fill="white"/>
<path d="M209.394 94.2164V84.788H205.668V94.2164H209.394Z" fill="white"/>
<path d="M222.186 106.732V97.3032H212.752V106.732H222.186Z" fill="white"/>
<path d="M209.394 106.732V97.3032H205.668V106.732H209.394Z" fill="white"/>
<path d="M195.461 94.2164V84.788H186.027V94.2164H195.461Z" fill="white"/>
<path d="M182.67 94.2164V84.788H178.944V94.2164H182.67Z" fill="white"/>
<path d="M195.461 106.732V97.3032H186.027V106.732H195.461Z" fill="white"/>
<path d="M182.67 106.732V97.3032H178.944V106.732H182.67Z" fill="white"/>
<path d="M168.066 94.2164V84.788H158.632V94.2164H168.066Z" fill="white"/>
<path d="M155.275 94.2164V84.788H151.548V94.2164H155.275Z" fill="white"/>
<path d="M168.066 106.732V97.3032H158.632V106.732H168.066Z" fill="white"/>
<path d="M155.275 106.732V97.3032H151.548V106.732H155.275Z" fill="white"/>
<path d="M140.536 94.2164V84.788H131.102V94.2164H140.536Z" fill="white"/>
<path d="M127.711 94.2164V84.788H123.985V94.2164H127.711Z" fill="white"/>
<path d="M140.536 106.732V97.3032H131.102V106.732H140.536Z" fill="white"/>
<path d="M127.711 106.732V97.3032H123.985V106.732H127.711Z" fill="white"/>
<path d="M112.436 94.2164V84.788H103.002V94.2164H112.436Z" fill="white"/>
<path d="M99.6444 94.2164V84.788H95.9178V94.2164H99.6444Z" fill="white"/>
<path d="M112.436 106.732V97.3032H103.002V106.732H112.436Z" fill="white"/>
<path d="M99.6444 106.732V97.3032H95.9178V106.732H99.6444Z" fill="white"/>
<path d="M88.2632 94.2164V84.788H78.8292V94.2164H88.2632Z" fill="white"/>
<path d="M75.4384 94.2164V84.788H71.7118V94.2164H75.4384Z" fill="white"/>
<path d="M88.2632 106.732V97.3032H78.8292V106.732H88.2632Z" fill="white"/>
<path d="M75.4384 106.732V97.3032H71.7118V106.732H75.4384Z" fill="white"/>
<path d="M63.4528 94.2164V84.788H54.0188V94.2164H63.4528Z" fill="white"/>
<path d="M50.6615 94.2164V84.788H46.9349V94.2164H50.6615Z" fill="white"/>
<path d="M63.4528 106.732V97.3032H54.0188V106.732H63.4528Z" fill="white"/>
<path d="M50.6615 106.732V97.3032H46.9349V106.732H50.6615Z" fill="white"/>
<path d="M39.7839 94.2164V84.788H30.3499L30.3499 94.2164H39.7839Z" fill="white"/>
<path d="M26.959 94.2164L26.959 84.788H23.2325L23.2325 94.2164H26.959Z" fill="white"/>
<path d="M39.7839 106.732V97.3032H30.3499L30.3499 106.732H39.7839Z" fill="white"/>
<path d="M26.959 106.732L26.959 97.3032H23.2325L23.2325 106.732H26.959Z" fill="white"/>
<path d="M204.862 206.283V180.716H196.267V206.283H204.862Z" fill="white"/>
<path d="M194.085 206.283V180.716H189.015V206.283H194.085Z" fill="white"/>
<path d="M183.409 206.283V180.716H175.351V206.283H183.409Z" fill="white"/>
<path d="M173.135 206.283V180.716H168.67V206.283H173.135Z" fill="white"/>
<path d="M163.231 206.283V180.716H154.637V206.283H163.231Z" fill="white"/>
<path d="M152.421 206.283V180.716H147.352V206.283H152.421Z" fill="white"/>
<path d="M141.745 206.283V180.716H133.687V206.283H141.745Z" fill="white"/>
<path d="M131.471 206.283V180.716H127.006L127.006 206.283H131.471Z" fill="white"/>
<path d="M120.695 206.283L120.695 180.716H112.1L112.1 206.283H120.695Z" fill="white"/>
<path d="M109.884 206.283L109.884 180.716H104.815L104.815 206.283H109.884Z" fill="white"/>
<path d="M99.208 206.283L99.208 180.716H91.1505L91.1505 206.283H99.208Z" fill="white"/>
<path d="M88.9346 206.283L88.9346 180.716H84.4694L84.4694 206.283H88.9346Z" fill="white"/>
<path d="M78.6277 206.283L78.6277 180.716H70.0331L70.0331 206.283H78.6277Z" fill="white"/>
<path d="M67.8173 206.283L67.8173 180.716H62.7478L62.7478 206.283H67.8173Z" fill="white"/>
<path d="M57.1411 206.283L57.1411 180.716H49.0836L49.0836 206.283H57.1411Z" fill="white"/>
<path d="M46.8678 206.283L46.8678 180.716H42.4026L42.4026 206.283H46.8678Z" fill="white"/>
<path d="M37.9374 206.283L37.9374 180.716H29.8799L29.8799 206.283H37.9374Z" fill="white"/>
<path d="M27.6977 206.283L27.6977 180.716H23.2325L23.2325 206.283H27.6977Z" fill="white"/>
<path d="M109.381 246.915V243.392V240.037H102.498V243.392V246.915V250.271H109.381V246.915Z" fill="white"/>
<path d="M102.498 234.702V238.057H109.381V234.702V231.179V227.824H102.498V231.179V234.702Z" fill="white"/>
<path d="M98.6708 231.179V227.824H94.6085V231.179V246.915L94.6085 250.271H98.6708L98.6708 246.915V231.179Z" fill="white"/>
<path d="M78.7956 234.702V238.057H85.6781V234.702V231.179V227.824H78.7956V231.179V234.702Z" fill="white"/>
<path d="M85.6781 243.392V240.037H78.7956V243.392V246.915V250.271H85.6781V246.915V243.392Z" fill="white"/>
<path d="M74.9683 231.179V227.824H70.906V231.179V246.915L70.906 250.271H74.9683L74.9683 246.915V231.179Z" fill="white"/>
<path d="M54.791 234.702V238.057H61.6734V234.702V231.179V227.824H54.791V231.179V234.702Z" fill="white"/>
<path d="M61.6734 243.392V240.037H54.791V243.392V246.915V250.271H61.6734V246.915V243.392Z" fill="white"/>
<path d="M50.9301 231.179V227.824H46.9014V231.179L46.9014 246.915V250.271H50.9301V246.915L50.9301 231.179Z" fill="white"/>
<path d="M31.4242 234.702V238.057H38.3067V234.702V231.179V227.824H31.4242V231.179L31.4242 234.702Z" fill="white"/>
<path d="M38.3067 243.392V240.037H31.4242V243.392L31.4242 246.915V250.271H38.3067V246.915V243.392Z" fill="white"/>
<path d="M27.5969 231.179V227.824H23.5346V231.179L23.5346 246.915V250.271H27.5969V246.915L27.5969 231.179Z" fill="white"/>
<path d="M207.514 7.61652L199.255 7.61652L178.944 18.5212L191.533 18.5212L207.514 7.61652Z" fill="white"/>
<path d="M219.668 9.86456L204.09 19.8633L216.008 19.8633L219.668 17.5482V9.86456Z" fill="white"/>
<path d="M226.986 18.5212L190.761 41.7733L202.747 42.545L226.986 26.9765V18.5212Z" fill="white"/>
<path d="M230.814 31.9758L214.665 42.545L226.013 42.545L230.814 39.2903V31.9758Z" fill="white"/>
<path d="M207.514 25.064L194.454 25.064L187.74 30.5331L199.658 30.5331L207.514 25.064Z" fill="white"/>
</g>
<defs>
<clipPath id="clip0_440_1229">
<rect width="749" height="341" fill="white" transform="matrix(0 1 -1 0 341 0)"/>
</clipPath>
</defs>
</svg>
