<svg width="1440" height="703" viewBox="0 0 1440 703" fill="none" xmlns="http://www.w3.org/2000/svg">
<rect x="29" y="83" width="18" height="132" fill="url(#paint0_linear_550_107)"/>
<rect x="153" y="132" width="18" height="132" fill="url(#paint1_linear_550_107)"/>
<rect x="572" y="291" width="18" height="132" fill="url(#paint2_linear_550_107)"/>
<rect x="941" y="52" width="18" height="132" fill="url(#paint3_linear_550_107)"/>
<rect x="1076" y="369" width="18" height="132" fill="url(#paint4_linear_550_107)"/>
<rect x="1305" width="18" height="132" fill="url(#paint5_linear_550_107)"/>
<rect x="1186" y="170" width="18" height="132" fill="url(#paint6_linear_550_107)"/>
<rect x="1402" y="13" width="18" height="132" fill="url(#paint7_linear_550_107)"/>
<rect x="854" y="176.196" width="141" height="526.804" fill="#400EF7"/>
<rect x="1135" y="287.348" width="126" height="415.652" fill="#400EF7"/>
<rect x="1039" y="490.037" width="126" height="212.963" fill="#400EF7"/>
<rect x="1209" y="396.632" width="159" height="306.368" fill="#400EF7"/>
<rect x="1281" y="118.285" width="159" height="584.715" fill="#400EF7"/>
<rect x="602" y="322.842" width="141" height="380.158" fill="#400EF7"/>
<rect x="563" y="414.379" width="141" height="288.621" fill="#400EF7"/>
<rect x="385" y="275.206" width="70" height="427.794" fill="#400EF7"/>
<rect x="466" y="275.206" width="70" height="427.794" fill="#400EF7"/>
<rect x="193" y="94" width="128" height="609" fill="#400EF7"/>
<rect x="107" y="255.59" width="128" height="447.41" fill="#400EF7"/>
<rect y="206.086" width="135" height="496.914" fill="#400EF7"/>
<rect x="16" y="228" width="60" height="28" fill="#653FEF"/>
<rect x="16" y="269" width="60" height="28" fill="#653FEF"/>
<rect x="16" y="310" width="60" height="28" fill="#653FEF"/>
<rect x="16" y="351" width="60" height="28" fill="#653FEF"/>
<rect x="16" y="392" width="60" height="28" fill="#653FEF"/>
<rect x="16" y="433" width="60" height="28" fill="#653FEF"/>
<rect x="16" y="474" width="60" height="28" fill="#653FEF"/>
<rect x="16" y="515" width="60" height="28" fill="#653FEF"/>
<rect x="16" y="556" width="60" height="28" fill="#653FEF"/>
<rect x="16" y="597" width="60" height="28" fill="#653FEF"/>
<rect x="16" y="638" width="60" height="28" fill="#653FEF"/>
<rect x="390" y="310" width="60" height="28" fill="#653FEF"/>
<rect x="390" y="351" width="60" height="28" fill="#653FEF"/>
<rect x="390" y="392" width="60" height="28" fill="#653FEF"/>
<rect x="390" y="433" width="60" height="28" fill="#653FEF"/>
<rect x="390" y="474" width="60" height="28" fill="#653FEF"/>
<rect x="390" y="515" width="60" height="28" fill="#653FEF"/>
<rect x="390" y="556" width="60" height="28" fill="#653FEF"/>
<rect x="390" y="597" width="60" height="28" fill="#653FEF"/>
<rect x="390" y="638" width="60" height="28" fill="#653FEF"/>
<rect x="471" y="310" width="60" height="28" fill="#653FEF"/>
<rect x="471" y="351" width="60" height="28" fill="#653FEF"/>
<rect x="471" y="392" width="60" height="28" fill="#653FEF"/>
<rect x="471" y="433" width="60" height="28" fill="#653FEF"/>
<rect x="471" y="474" width="60" height="28" fill="#653FEF"/>
<rect x="471" y="515" width="60" height="28" fill="#653FEF"/>
<rect x="471" y="556" width="60" height="28" fill="#653FEF"/>
<rect x="471" y="597" width="60" height="28" fill="#653FEF"/>
<rect x="471" y="638" width="60" height="28" fill="#653FEF"/>
<rect x="865" y="187" width="32" height="28" fill="#653FEF"/>
<rect x="865" y="228" width="32" height="28" fill="#653FEF"/>
<rect x="865" y="269" width="32" height="28" fill="#653FEF"/>
<rect x="865" y="310" width="32" height="28" fill="#653FEF"/>
<rect x="865" y="351" width="32" height="28" fill="#653FEF"/>
<rect x="865" y="392" width="32" height="28" fill="#653FEF"/>
<rect x="865" y="433" width="32" height="28" fill="#653FEF"/>
<rect x="865" y="474" width="32" height="28" fill="#653FEF"/>
<rect x="865" y="515" width="32" height="28" fill="#653FEF"/>
<rect x="865" y="550" width="32" height="28" fill="#653FEF"/>
<rect x="865" y="591" width="32" height="28" fill="#653FEF"/>
<rect x="865" y="632" width="32" height="28" fill="#653FEF"/>
<rect x="909" y="187" width="32" height="28" fill="#653FEF"/>
<rect x="909" y="228" width="32" height="28" fill="#653FEF"/>
<rect x="909" y="269" width="32" height="28" fill="#653FEF"/>
<rect x="909" y="310" width="32" height="28" fill="#653FEF"/>
<rect x="909" y="433" width="32" height="28" fill="#653FEF"/>
<rect x="909" y="474" width="32" height="28" fill="#653FEF"/>
<rect x="909" y="515" width="32" height="28" fill="#653FEF"/>
<rect x="909" y="351" width="32" height="28" fill="#653FEF"/>
<rect x="909" y="392" width="32" height="28" fill="#653FEF"/>
<rect x="909" y="550" width="32" height="28" fill="#653FEF"/>
<rect x="909" y="591" width="32" height="28" fill="#653FEF"/>
<rect x="909" y="632" width="32" height="28" fill="#653FEF"/>
<rect x="222" y="129" width="32" height="28" fill="#653FEF"/>
<rect x="222" y="170" width="32" height="28" fill="#653FEF"/>
<rect x="222" y="211" width="32" height="28" fill="#653FEF"/>
<rect x="222" y="252" width="32" height="28" fill="#653FEF"/>
<rect x="222" y="293" width="32" height="28" fill="#653FEF"/>
<rect x="222" y="334" width="32" height="28" fill="#653FEF"/>
<rect x="222" y="375" width="32" height="28" fill="#653FEF"/>
<rect x="222" y="416" width="32" height="28" fill="#653FEF"/>
<rect x="222" y="457" width="32" height="28" fill="#653FEF"/>
<rect x="222" y="498" width="32" height="28" fill="#653FEF"/>
<rect x="222" y="539" width="32" height="28" fill="#653FEF"/>
<rect x="222" y="580" width="32" height="28" fill="#653FEF"/>
<rect x="655" y="343" width="32" height="28" fill="#653FEF"/>
<rect x="655" y="384" width="32" height="28" fill="#653FEF"/>
<rect x="655" y="425" width="32" height="28" fill="#653FEF"/>
<rect x="655" y="466" width="32" height="28" fill="#653FEF"/>
<rect x="655" y="507" width="32" height="28" fill="#653FEF"/>
<rect x="655" y="548" width="32" height="28" fill="#653FEF"/>
<rect x="655" y="589" width="32" height="28" fill="#653FEF"/>
<rect x="655" y="630" width="32" height="28" fill="#653FEF"/>
<rect x="655" y="671" width="32" height="28" fill="#653FEF"/>
<rect x="266" y="129" width="32" height="28" fill="#653FEF"/>
<rect x="266" y="170" width="32" height="28" fill="#653FEF"/>
<rect x="266" y="211" width="32" height="28" fill="#653FEF"/>
<rect x="266" y="252" width="32" height="28" fill="#653FEF"/>
<rect x="266" y="375" width="32" height="28" fill="#653FEF"/>
<rect x="266" y="416" width="32" height="28" fill="#653FEF"/>
<rect x="266" y="498" width="32" height="28" fill="#653FEF"/>
<rect x="266" y="539" width="32" height="28" fill="#653FEF"/>
<rect x="266" y="580" width="32" height="28" fill="#653FEF"/>
<rect x="699" y="343" width="32" height="28" fill="#653FEF"/>
<rect x="699" y="384" width="32" height="28" fill="#653FEF"/>
<rect x="699" y="425" width="32" height="28" fill="#653FEF"/>
<rect x="699" y="466" width="32" height="28" fill="#653FEF"/>
<rect x="699" y="507" width="32" height="28" fill="#653FEF"/>
<rect x="699" y="548" width="32" height="28" fill="#653FEF"/>
<rect x="266" y="457" width="32" height="28" fill="#653FEF"/>
<rect x="266" y="293" width="32" height="28" fill="#653FEF"/>
<rect x="266" y="334" width="32" height="28" fill="#653FEF"/>
<rect x="699" y="589" width="32" height="28" fill="#653FEF"/>
<rect x="699" y="630" width="32" height="28" fill="#653FEF"/>
<rect x="699" y="671" width="32" height="28" fill="#653FEF"/>
<rect x="1395" y="145" width="32" height="28" fill="#653FEF"/>
<rect x="1395" y="186" width="32" height="28" fill="#653FEF"/>
<rect x="1395" y="227" width="32" height="28" fill="#653FEF"/>
<rect x="1395" y="268" width="32" height="28" fill="#653FEF"/>
<rect x="1395" y="309" width="32" height="28" fill="#653FEF"/>
<rect x="1395" y="350" width="32" height="28" fill="#653FEF"/>
<rect x="1395" y="391" width="32" height="28" fill="#653FEF"/>
<rect x="1395" y="432" width="32" height="28" fill="#653FEF"/>
<rect x="1395" y="473" width="32" height="28" fill="#653FEF"/>
<rect x="1345" y="145" width="32" height="28" fill="#653FEF"/>
<rect x="1345" y="186" width="32" height="28" fill="#653FEF"/>
<rect x="1345" y="227" width="32" height="28" fill="#653FEF"/>
<rect x="1345" y="268" width="32" height="28" fill="#653FEF"/>
<rect x="1345" y="309" width="32" height="28" fill="#653FEF"/>
<rect x="1345" y="350" width="32" height="28" fill="#653FEF"/>
<rect x="1345" y="391" width="32" height="28" fill="#653FEF"/>
<rect x="1345" y="432" width="32" height="28" fill="#653FEF"/>
<rect x="1345" y="473" width="32" height="28" fill="#653FEF"/>
<rect x="1209" y="309" width="32" height="28" fill="#653FEF"/>
<rect x="1209" y="350" width="32" height="28" fill="#653FEF"/>
<rect x="1209" y="391" width="32" height="28" fill="#653FEF"/>
<rect x="1209" y="432" width="32" height="28" fill="#653FEF"/>
<rect x="1209" y="473" width="32" height="28" fill="#653FEF"/>
<rect x="1209" y="514" width="32" height="28" fill="#653FEF"/>
<rect x="1209" y="555" width="32" height="28" fill="#653FEF"/>
<rect x="1209" y="596" width="32" height="28" fill="#653FEF"/>
<rect x="1209" y="637" width="32" height="28" fill="#653FEF"/>
<rect x="1273" y="432" width="32" height="28" fill="#653FEF"/>
<rect x="1273" y="473" width="32" height="28" fill="#653FEF"/>
<rect x="1273" y="514" width="32" height="28" fill="#653FEF"/>
<rect x="1273" y="555" width="32" height="28" fill="#653FEF"/>
<rect x="1345" y="516" width="32" height="28" fill="#653FEF"/>
<rect x="1345" y="557" width="32" height="28" fill="#653FEF"/>
<rect x="1345" y="598" width="32" height="28" fill="#653FEF"/>
<rect x="1345" y="639" width="32" height="28" fill="#653FEF"/>
<rect x="1395" y="516" width="32" height="28" fill="#653FEF"/>
<rect x="1395" y="557" width="32" height="28" fill="#653FEF"/>
<rect x="1395" y="598" width="32" height="28" fill="#653FEF"/>
<rect x="1395" y="639" width="32" height="28" fill="#653FEF"/>
<rect x="1049" y="502" width="137" height="28" fill="#653FEF"/>
<rect x="1049" y="543" width="137" height="28" fill="#653FEF"/>
<rect x="1049" y="584" width="137" height="28" fill="#653FEF"/>
<rect x="1049" y="625" width="137" height="28" fill="#653FEF"/>
<rect x="1049" y="666" width="137" height="28" fill="#653FEF"/>
<defs>
<linearGradient id="paint0_linear_550_107" x1="38" y1="83" x2="38" y2="215" gradientUnits="userSpaceOnUse">
<stop stop-color="white" stop-opacity="0"/>
<stop offset="1" stop-color="#01EF60"/>
</linearGradient>
<linearGradient id="paint1_linear_550_107" x1="162" y1="132" x2="162" y2="264" gradientUnits="userSpaceOnUse">
<stop stop-color="white" stop-opacity="0"/>
<stop offset="1" stop-color="#01EF60"/>
</linearGradient>
<linearGradient id="paint2_linear_550_107" x1="581" y1="291" x2="581" y2="423" gradientUnits="userSpaceOnUse">
<stop stop-color="white" stop-opacity="0"/>
<stop offset="1" stop-color="#EF3A01"/>
</linearGradient>
<linearGradient id="paint3_linear_550_107" x1="950" y1="52" x2="950" y2="184" gradientUnits="userSpaceOnUse">
<stop stop-color="white" stop-opacity="0"/>
<stop offset="1" stop-color="#01EF60"/>
</linearGradient>
<linearGradient id="paint4_linear_550_107" x1="1085" y1="369" x2="1085" y2="501" gradientUnits="userSpaceOnUse">
<stop stop-color="white" stop-opacity="0"/>
<stop offset="1" stop-color="#01EF60"/>
</linearGradient>
<linearGradient id="paint5_linear_550_107" x1="1314" y1="0" x2="1314" y2="132" gradientUnits="userSpaceOnUse">
<stop stop-color="white" stop-opacity="0"/>
<stop offset="1" stop-color="#01EF60"/>
</linearGradient>
<linearGradient id="paint6_linear_550_107" x1="1195" y1="170" x2="1195" y2="302" gradientUnits="userSpaceOnUse">
<stop stop-color="white" stop-opacity="0"/>
<stop offset="1" stop-color="#FAFF00"/>
</linearGradient>
<linearGradient id="paint7_linear_550_107" x1="1411" y1="13" x2="1411" y2="145" gradientUnits="userSpaceOnUse">
<stop stop-color="white" stop-opacity="0"/>
<stop offset="1" stop-color="#FAFF00"/>
</linearGradient>
</defs>
</svg>
