<svg width="1423" height="595" viewBox="0 0 1423 595" fill="none" xmlns="http://www.w3.org/2000/svg">
<rect x="251" y="226" width="18" height="132" fill="url(#paint0_linear_550_92)"/>
<rect x="516" y="188" width="18" height="132" fill="url(#paint1_linear_550_92)"/>
<rect x="1349" width="18" height="132" fill="url(#paint2_linear_550_92)"/>
<rect x="1212" y="103" width="18" height="132" fill="url(#paint3_linear_550_92)"/>
<rect x="1069" y="359" width="18" height="132" fill="url(#paint4_linear_550_92)"/>
<rect x="859" y="289" width="18" height="132" fill="url(#paint5_linear_550_92)"/>
<rect x="756" y="85" width="18" height="132" fill="url(#paint6_linear_550_92)"/>
<rect x="56" y="174.678" width="158" height="419.388" fill="#1C1CB4"/>
<rect x="162" y="384.839" width="158" height="209.227" fill="#1C1CB4"/>
<rect x="474" y="313.851" width="76" height="280.215" fill="#1C1CB4"/>
<rect x="571" y="357.752" width="76" height="236.314" fill="#1C1CB4"/>
<rect x="729" y="204.568" width="76" height="389.498" fill="#1C1CB4"/>
<rect x="1189" y="216.71" width="76" height="377.356" fill="#1C1CB4"/>
<rect x="1133" y="273.687" width="76" height="320.379" fill="#1C1CB4"/>
<rect x="1347" y="283.962" width="76" height="310.104" fill="#1C1CB4"/>
<rect x="317" y="170.942" width="158" height="423.124" fill="#1C1CB4"/>
<rect x="383" y="113.031" width="113" height="481.035" fill="#1C1CB4"/>
<rect x="1310" y="113.965" width="113" height="481.035" fill="#1C1CB4"/>
<rect y="148.525" width="84" height="445.541" fill="#1C1CB4"/>
<rect x="12" y="167" width="60" height="18" fill="#C4C660"/>
<rect x="12" y="199" width="60" height="18" fill="#C4C660"/>
<rect x="12" y="231" width="60" height="18" fill="#C4C660"/>
<rect x="12" y="263" width="60" height="18" fill="#C4C660"/>
<rect x="12" y="295" width="60" height="18" fill="#C4C660"/>
<rect x="12" y="327" width="60" height="18" fill="#C4C660"/>
<rect x="12" y="359" width="60" height="18" fill="#C4C660"/>
<rect x="12" y="391" width="60" height="18" fill="#C4C660"/>
<rect x="12" y="423" width="60" height="18" fill="#C4C660"/>
<rect x="12" y="455" width="60" height="18" fill="#C4C660"/>
<rect x="12" y="487" width="60" height="18" fill="#C4C660"/>
<rect x="12" y="519" width="60" height="18" fill="#C4C660"/>
<rect x="12" y="551" width="60" height="18" fill="#C4C660"/>
<rect x="241" y="348.411" width="37" height="245.655" fill="#1C1CB4"/>
<rect x="972" y="266.215" width="76" height="327.851" fill="#1C1CB4"/>
<rect x="901" y="358" width="76" height="236" fill="#1C1CB4"/>
<rect x="832" y="412" width="76" height="183" fill="#1C1CB4"/>
<rect x="1038" y="472" width="76" height="123" fill="#1C1CB4"/>
<rect x="620" y="472" width="76" height="123" fill="#1C1CB4"/>
<rect x="99" y="254" width="94" height="18" fill="#C4C660"/>
<rect x="99" y="350" width="94" height="18" fill="#C4C660"/>
<rect x="99" y="446" width="94" height="18" fill="#C4C660"/>
<rect x="99" y="542" width="94" height="18" fill="#C4C660"/>
<rect x="455" y="135" width="30" height="18" fill="#C4C660"/>
<rect x="455" y="167" width="30" height="18" fill="#C4C660"/>
<rect x="763" y="221" width="30" height="18" fill="#C4C660"/>
<rect x="763" y="253" width="30" height="18" fill="#C4C660"/>
<rect x="763" y="349" width="30" height="18" fill="#C4C660"/>
<rect x="998" y="284" width="30" height="18" fill="#C4C660"/>
<rect x="998" y="316" width="30" height="18" fill="#C4C660"/>
<rect x="998" y="349" width="30" height="18" fill="#C4C660"/>
<rect x="763" y="317" width="30" height="18" fill="#C4C660"/>
<rect x="763" y="381" width="30" height="18" fill="#C4C660"/>
<rect x="584" y="494" width="30" height="18" fill="#C4C660"/>
<rect x="649" y="494" width="30" height="18" fill="#C4C660"/>
<rect x="584" y="524" width="30" height="18" fill="#C4C660"/>
<rect x="584" y="554" width="30" height="18" fill="#C4C660"/>
<rect x="649" y="524" width="30" height="18" fill="#C4C660"/>
<rect x="649" y="554" width="30" height="18" fill="#C4C660"/>
<rect x="455" y="263" width="30" height="18" fill="#C4C660"/>
<rect x="455" y="199" width="30" height="18" fill="#C4C660"/>
<rect x="998" y="412" width="30" height="18" fill="#C4C660"/>
<rect x="918" y="412" width="30" height="18" fill="#C4C660"/>
<rect x="918" y="508" width="30" height="18" fill="#C4C660"/>
<rect x="878" y="508" width="30" height="18" fill="#C4C660"/>
<rect x="962" y="508" width="30" height="18" fill="#C4C660"/>
<rect x="1048" y="541" width="30" height="18" fill="#C4C660"/>
<rect x="1212" y="296" width="30" height="18" fill="#C4C660"/>
<rect x="1154" y="296" width="30" height="18" fill="#C4C660"/>
<rect x="1154" y="357" width="30" height="18" fill="#C4C660"/>
<rect x="1154" y="418" width="30" height="18" fill="#C4C660"/>
<rect x="1154" y="479" width="30" height="18" fill="#C4C660"/>
<rect x="1154" y="540" width="30" height="18" fill="#C4C660"/>
<rect x="1212" y="386" width="30" height="18" fill="#C4C660"/>
<rect x="1212" y="476" width="30" height="18" fill="#C4C660"/>
<rect x="1212" y="566" width="30" height="18" fill="#C4C660"/>
<rect x="455" y="327" width="30" height="18" fill="#C4C660"/>
<rect x="455" y="231" width="30" height="18" fill="#C4C660"/>
<rect x="455" y="295" width="30" height="18" fill="#C4C660"/>
<rect x="455" y="391" width="30" height="18" fill="#C4C660"/>
<rect x="998" y="380" width="30" height="18" fill="#C4C660"/>
<rect x="455" y="455" width="30" height="18" fill="#C4C660"/>
<rect x="918" y="380" width="30" height="18" fill="#C4C660"/>
<rect x="998" y="444" width="30" height="18" fill="#C4C660"/>
<rect x="918" y="476" width="30" height="18" fill="#C4C660"/>
<rect x="918" y="444" width="30" height="18" fill="#C4C660"/>
<rect x="878" y="476" width="30" height="18" fill="#C4C660"/>
<rect x="918" y="540" width="30" height="18" fill="#C4C660"/>
<rect x="962" y="476" width="30" height="18" fill="#C4C660"/>
<rect x="878" y="540" width="30" height="18" fill="#C4C660"/>
<rect x="1048" y="509" width="30" height="18" fill="#C4C660"/>
<rect x="1048" y="480" width="30" height="18" fill="#C4C660"/>
<rect x="1212" y="264" width="30" height="18" fill="#C4C660"/>
<rect x="1212" y="235" width="30" height="18" fill="#C4C660"/>
<rect x="962" y="540" width="30" height="18" fill="#C4C660"/>
<rect x="1212" y="354" width="30" height="18" fill="#C4C660"/>
<rect x="1212" y="444" width="30" height="18" fill="#C4C660"/>
<rect x="1212" y="325" width="30" height="18" fill="#C4C660"/>
<rect x="1212" y="534" width="30" height="18" fill="#C4C660"/>
<rect x="1154" y="325" width="30" height="18" fill="#C4C660"/>
<rect x="1154" y="386" width="30" height="18" fill="#C4C660"/>
<rect x="1154" y="447" width="30" height="18" fill="#C4C660"/>
<rect x="1154" y="508" width="30" height="18" fill="#C4C660"/>
<rect x="1154" y="569" width="30" height="18" fill="#C4C660"/>
<rect x="1212" y="415" width="30" height="18" fill="#C4C660"/>
<rect x="1212" y="505" width="30" height="18" fill="#C4C660"/>
<rect x="455" y="519" width="30" height="18" fill="#C4C660"/>
<rect x="1048" y="573" width="30" height="18" fill="#C4C660"/>
<rect x="455" y="359" width="30" height="18" fill="#C4C660"/>
<rect x="455" y="423" width="30" height="18" fill="#C4C660"/>
<rect x="455" y="487" width="30" height="18" fill="#C4C660"/>
<rect x="455" y="551" width="30" height="18" fill="#C4C660"/>
<rect x="405" y="199" width="30" height="18" fill="#C4C660"/>
<rect x="355" y="199" width="30" height="18" fill="#C4C660"/>
<rect x="405" y="263" width="30" height="18" fill="#C4C660"/>
<rect x="355" y="263" width="30" height="18" fill="#C4C660"/>
<rect x="405" y="327" width="30" height="18" fill="#C4C660"/>
<rect x="355" y="327" width="30" height="18" fill="#C4C660"/>
<rect x="405" y="391" width="30" height="18" fill="#C4C660"/>
<rect x="355" y="391" width="30" height="18" fill="#C4C660"/>
<rect x="405" y="455" width="30" height="18" fill="#C4C660"/>
<rect x="355" y="455" width="30" height="18" fill="#C4C660"/>
<rect x="405" y="519" width="30" height="18" fill="#C4C660"/>
<rect x="355" y="519" width="30" height="18" fill="#C4C660"/>
<rect x="405" y="231" width="30" height="18" fill="#C4C660"/>
<rect x="355" y="231" width="30" height="18" fill="#C4C660"/>
<rect x="405" y="295" width="30" height="18" fill="#C4C660"/>
<rect x="355" y="295" width="30" height="18" fill="#C4C660"/>
<rect x="405" y="359" width="30" height="18" fill="#C4C660"/>
<rect x="355" y="359" width="30" height="18" fill="#C4C660"/>
<rect x="405" y="423" width="30" height="18" fill="#C4C660"/>
<rect x="355" y="423" width="30" height="18" fill="#C4C660"/>
<rect x="405" y="487" width="30" height="18" fill="#C4C660"/>
<rect x="355" y="487" width="30" height="18" fill="#C4C660"/>
<rect x="405" y="551" width="30" height="18" fill="#C4C660"/>
<rect x="355" y="551" width="30" height="18" fill="#C4C660"/>
<rect x="577" y="423" width="60" height="18" fill="#C4C660"/>
<rect x="577" y="455" width="60" height="18" fill="#C4C660"/>
<rect x="99" y="190" width="94" height="18" fill="#C4C660"/>
<rect x="99" y="222" width="94" height="18" fill="#C4C660"/>
<rect x="577" y="391" width="60" height="18" fill="#C4C660"/>
<rect x="99" y="286" width="94" height="18" fill="#C4C660"/>
<rect x="99" y="382" width="94" height="18" fill="#C4C660"/>
<rect x="99" y="478" width="94" height="18" fill="#C4C660"/>
<rect x="99" y="318" width="94" height="18" fill="#C4C660"/>
<rect x="99" y="414" width="94" height="18" fill="#C4C660"/>
<rect x="99" y="510" width="94" height="18" fill="#C4C660"/>
<rect x="702" y="412" width="76" height="183" fill="#1C1CB4"/>
<rect x="722" y="430" width="60" height="18" fill="#C4C660"/>
<rect x="722" y="463" width="60" height="18" fill="#C4C660"/>
<rect x="1337" y="135" width="60" height="18" fill="#C4C660"/>
<rect x="1337" y="167" width="60" height="18" fill="#C4C660"/>
<rect x="1337" y="199" width="60" height="18" fill="#C4C660"/>
<rect x="1337" y="263" width="60" height="18" fill="#C4C660"/>
<rect x="1337" y="327" width="60" height="18" fill="#C4C660"/>
<rect x="1337" y="391" width="60" height="18" fill="#C4C660"/>
<rect x="1337" y="455" width="60" height="18" fill="#C4C660"/>
<rect x="1337" y="519" width="60" height="18" fill="#C4C660"/>
<rect x="1337" y="231" width="60" height="18" fill="#C4C660"/>
<rect x="1337" y="295" width="60" height="18" fill="#C4C660"/>
<rect x="1337" y="359" width="60" height="18" fill="#C4C660"/>
<rect x="1337" y="423" width="60" height="18" fill="#C4C660"/>
<rect x="1337" y="487" width="60" height="18" fill="#C4C660"/>
<rect x="1337" y="551" width="60" height="18" fill="#C4C660"/>
<rect x="722" y="496" width="60" height="18" fill="#C4C660"/>
<rect x="722" y="529" width="60" height="18" fill="#C4C660"/>
<rect x="722" y="562" width="60" height="18" fill="#C4C660"/>
<defs>
<linearGradient id="paint0_linear_550_92" x1="260" y1="226" x2="260" y2="358" gradientUnits="userSpaceOnUse">
<stop stop-color="white" stop-opacity="0"/>
<stop offset="1" stop-color="#01EF60"/>
</linearGradient>
<linearGradient id="paint1_linear_550_92" x1="525" y1="188" x2="525" y2="320" gradientUnits="userSpaceOnUse">
<stop stop-color="white" stop-opacity="0"/>
<stop offset="1" stop-color="#EF9001"/>
</linearGradient>
<linearGradient id="paint2_linear_550_92" x1="1358" y1="0" x2="1358" y2="132" gradientUnits="userSpaceOnUse">
<stop stop-color="white" stop-opacity="0"/>
<stop offset="1" stop-color="#01EF60"/>
</linearGradient>
<linearGradient id="paint3_linear_550_92" x1="1221" y1="103" x2="1221" y2="235" gradientUnits="userSpaceOnUse">
<stop stop-color="white" stop-opacity="0"/>
<stop offset="1" stop-color="#01EF60"/>
</linearGradient>
<linearGradient id="paint4_linear_550_92" x1="1078" y1="359" x2="1078" y2="491" gradientUnits="userSpaceOnUse">
<stop stop-color="white" stop-opacity="0"/>
<stop offset="1" stop-color="#EF9001"/>
</linearGradient>
<linearGradient id="paint5_linear_550_92" x1="868" y1="289" x2="868" y2="421" gradientUnits="userSpaceOnUse">
<stop stop-color="white" stop-opacity="0"/>
<stop offset="1" stop-color="#EF9001"/>
</linearGradient>
<linearGradient id="paint6_linear_550_92" x1="765" y1="85" x2="765" y2="217" gradientUnits="userSpaceOnUse">
<stop stop-color="white" stop-opacity="0"/>
<stop offset="1" stop-color="#DCEF01"/>
</linearGradient>
</defs>
</svg>
