<svg width="1440" height="497" viewBox="0 0 1440 497" fill="none" xmlns="http://www.w3.org/2000/svg">
<rect y="203.709" width="135" height="292.357" fill="#0A0A9C"/>
<rect x="436" y="293.377" width="60" height="202.689" fill="#0A0A9C"/>
<rect x="376" y="169.149" width="60" height="326.917" fill="#0A0A9C"/>
<rect x="90" y="0.0859375" width="60" height="495.98" fill="#0A0A9C"/>
<rect x="520" y="385.848" width="76" height="110.218" fill="#0A0A9C"/>
<rect x="581" y="426.012" width="41" height="70.0537" fill="#0A0A9C"/>
<rect x="1122" y="324.201" width="85" height="171.865" fill="#0A0A9C"/>
<rect x="1235" y="417.606" width="85" height="78.4601" fill="#0A0A9C"/>
<rect x="275" y="355.025" width="106" height="141.041" fill="#0A0A9C"/>
<rect x="150" y="339.146" width="106" height="156.92" fill="#0A0A9C"/>
<rect x="826" y="355.025" width="78" height="141.041" fill="#0A0A9C"/>
<rect x="779" y="404.529" width="78" height="91.5368" fill="#0A0A9C"/>
<rect x="949" y="108.436" width="78" height="387.63" fill="#0A0A9C"/>
<rect x="466" y="326.069" width="60" height="169.997" fill="#0A0A9C"/>
<rect x="1018" y="311.124" width="78" height="184.942" fill="#0A0A9C"/>
<rect x="120" y="80.4142" width="60" height="415.652" fill="#0A0A9C"/>
<rect x="1179" y="385.848" width="41" height="110.218" fill="#0A0A9C"/>
<rect x="1278" y="171.017" width="162" height="325.049" fill="#0A0A9C"/>
<rect x="1315" y="136.457" width="87" height="359.609" fill="#0A0A9C"/>
<rect x="693" y="380.244" width="86" height="115.822" fill="#0A0A9C"/>
<rect x="618" y="293.377" width="86" height="202.689" fill="#0A0A9C"/>
<rect x="203" y="273.762" width="49" height="222.304" fill="#0A0A9C"/>
<rect x="10" y="218" width="20" height="15" fill="#E1E457"/>
<rect x="10" y="266" width="20" height="15" fill="#E1E457"/>
<rect x="10" y="314" width="20" height="15" fill="#E1E457"/>
<rect x="10" y="362" width="20" height="15" fill="#E1E457"/>
<rect x="97" y="391" width="20" height="15" fill="#E1E457"/>
<rect x="154" y="392" width="20" height="15" fill="#E1E457"/>
<rect x="97" y="347" width="20" height="15" fill="#E1E457"/>
<rect x="154" y="347" width="20" height="15" fill="#E1E457"/>
<rect x="10" y="241" width="20" height="15" fill="#E1E457"/>
<rect x="97" y="414" width="20" height="15" fill="#E1E457"/>
<rect x="154" y="414" width="20" height="15" fill="#E1E457"/>
<rect x="10" y="385" width="20" height="15" fill="#E1E457"/>
<rect x="10" y="289" width="20" height="15" fill="#E1E457"/>
<rect x="97" y="370" width="20" height="15" fill="#E1E457"/>
<rect x="10" y="337" width="20" height="15" fill="#E1E457"/>
<rect x="123" y="391" width="20" height="15" fill="#E1E457"/>
<rect x="180" y="392" width="20" height="15" fill="#E1E457"/>
<rect x="36" y="362" width="20" height="15" fill="#E1E457"/>
<rect x="154" y="370" width="20" height="15" fill="#E1E457"/>
<rect x="123" y="414" width="20" height="15" fill="#E1E457"/>
<rect x="36" y="218" width="20" height="15" fill="#E1E457"/>
<rect x="180" y="414" width="20" height="15" fill="#E1E457"/>
<rect x="123" y="347" width="20" height="15" fill="#E1E457"/>
<rect x="36" y="385" width="20" height="15" fill="#E1E457"/>
<rect x="844" y="388" width="20" height="15" fill="#E1E457"/>
<rect x="844" y="365" width="20" height="15" fill="#E1E457"/>
<rect x="870" y="365" width="20" height="15" fill="#E1E457"/>
<rect x="870" y="388" width="20" height="15" fill="#E1E457"/>
<rect x="844" y="433" width="20" height="15" fill="#E1E457"/>
<rect x="844" y="410" width="20" height="15" fill="#E1E457"/>
<rect x="870" y="410" width="20" height="15" fill="#E1E457"/>
<rect x="870" y="433" width="20" height="15" fill="#E1E457"/>
<rect x="844" y="477" width="20" height="15" fill="#E1E457"/>
<rect x="844" y="454" width="20" height="15" fill="#E1E457"/>
<rect x="870" y="454" width="20" height="15" fill="#E1E457"/>
<rect x="870" y="477" width="20" height="15" fill="#E1E457"/>
<rect x="792" y="477" width="20" height="15" fill="#E1E457"/>
<rect x="792" y="454" width="20" height="15" fill="#E1E457"/>
<rect x="818" y="454" width="20" height="15" fill="#E1E457"/>
<rect x="818" y="477" width="20" height="15" fill="#E1E457"/>
<rect x="792" y="433" width="20" height="15" fill="#E1E457"/>
<rect x="792" y="410" width="20" height="15" fill="#E1E457"/>
<rect x="818" y="410" width="20" height="15" fill="#E1E457"/>
<rect x="818" y="433" width="20" height="15" fill="#E1E457"/>
<rect x="36" y="266" width="20" height="15" fill="#E1E457"/>
<rect x="36" y="314" width="20" height="15" fill="#E1E457"/>
<rect x="180" y="347" width="20" height="15" fill="#E1E457"/>
<rect x="225" y="281" width="20" height="15" fill="#E1E457"/>
<rect x="225" y="311" width="20" height="15" fill="#E1E457"/>
<rect x="100" y="19" width="20" height="15" fill="#E1E457"/>
<rect x="100" y="49" width="20" height="15" fill="#E1E457"/>
<rect x="225" y="341" width="20" height="15" fill="#E1E457"/>
<rect x="286" y="366" width="20" height="15" fill="#E1E457"/>
<rect x="286" y="396" width="20" height="15" fill="#E1E457"/>
<rect x="286" y="426" width="20" height="15" fill="#E1E457"/>
<rect x="317" y="366" width="20" height="15" fill="#E1E457"/>
<rect x="317" y="396" width="20" height="15" fill="#E1E457"/>
<rect x="317" y="426" width="20" height="15" fill="#E1E457"/>
<rect x="440" y="303" width="20" height="15" fill="#E1E457"/>
<rect x="440" y="333" width="20" height="15" fill="#E1E457"/>
<rect x="440" y="363" width="20" height="15" fill="#E1E457"/>
<rect x="471" y="303" width="20" height="15" fill="#E1E457"/>
<rect x="471" y="333" width="20" height="15" fill="#E1E457"/>
<rect x="471" y="363" width="20" height="15" fill="#E1E457"/>
<rect x="440" y="393" width="20" height="15" fill="#E1E457"/>
<rect x="440" y="423" width="20" height="15" fill="#E1E457"/>
<rect x="440" y="453" width="20" height="15" fill="#E1E457"/>
<rect x="471" y="393" width="20" height="15" fill="#E1E457"/>
<rect x="471" y="423" width="20" height="15" fill="#E1E457"/>
<rect x="471" y="453" width="20" height="15" fill="#E1E457"/>
<rect x="406" y="185" width="20" height="15" fill="#E1E457"/>
<rect x="406" y="215" width="20" height="15" fill="#E1E457"/>
<rect x="406" y="245" width="20" height="15" fill="#E1E457"/>
<rect x="123" y="370" width="20" height="15" fill="#E1E457"/>
<rect x="36" y="241" width="20" height="15" fill="#E1E457"/>
<rect x="36" y="289" width="20" height="15" fill="#E1E457"/>
<rect x="36" y="337" width="20" height="15" fill="#E1E457"/>
<rect x="180" y="370" width="20" height="15" fill="#E1E457"/>
<rect x="97" y="255" width="72" height="15" fill="#E1E457"/>
<rect x="625" y="309" width="72" height="15" fill="#E1E457"/>
<rect x="625" y="332" width="72" height="15" fill="#E1E457"/>
<rect x="625" y="355" width="72" height="15" fill="#E1E457"/>
<rect x="625" y="378" width="72" height="15" fill="#E1E457"/>
<rect x="625" y="447" width="72" height="15" fill="#E1E457"/>
<rect x="625" y="401" width="72" height="15" fill="#E1E457"/>
<rect x="625" y="470" width="72" height="15" fill="#E1E457"/>
<rect x="625" y="424" width="72" height="15" fill="#E1E457"/>
<rect x="996" y="334" width="72" height="15" fill="#E1E457"/>
<rect x="996" y="357" width="72" height="15" fill="#E1E457"/>
<rect x="996" y="380" width="72" height="15" fill="#E1E457"/>
<rect x="996" y="403" width="72" height="15" fill="#E1E457"/>
<rect x="1322" y="150" width="72" height="15" fill="#E1E457"/>
<rect x="1322" y="173" width="72" height="15" fill="#E1E457"/>
<rect x="1322" y="196" width="72" height="15" fill="#E1E457"/>
<rect x="996" y="426" width="72" height="15" fill="#E1E457"/>
<rect x="996" y="449" width="72" height="15" fill="#E1E457"/>
<rect x="97" y="91" width="72" height="15" fill="#E1E457"/>
<rect x="97" y="438" width="72" height="15" fill="#E1E457"/>
<rect x="97" y="463" width="72" height="15" fill="#E1E457"/>
<rect x="97" y="139" width="72" height="15" fill="#E1E457"/>
<rect x="97" y="187" width="72" height="15" fill="#E1E457"/>
<rect x="97" y="232" width="72" height="15" fill="#E1E457"/>
<rect x="97" y="114" width="72" height="15" fill="#E1E457"/>
<rect x="97" y="162" width="72" height="15" fill="#E1E457"/>
<rect x="97" y="210" width="72" height="15" fill="#E1E457"/>
<rect x="1258" y="430" width="20" height="15" fill="#E1E457"/>
<rect x="1284" y="407" width="20" height="15" fill="#E1E457"/>
<rect x="1284" y="384" width="20" height="15" fill="#E1E457"/>
<rect x="1284" y="361" width="20" height="15" fill="#E1E457"/>
<rect x="1284" y="338" width="20" height="15" fill="#E1E457"/>
<rect x="1284" y="315" width="20" height="15" fill="#E1E457"/>
<rect x="1284" y="292" width="20" height="15" fill="#E1E457"/>
<rect x="1284" y="269" width="20" height="15" fill="#E1E457"/>
<rect x="1284" y="246" width="20" height="15" fill="#E1E457"/>
<rect x="1284" y="223" width="20" height="15" fill="#E1E457"/>
<rect x="1310" y="407" width="20" height="15" fill="#E1E457"/>
<rect x="1336" y="407" width="20" height="15" fill="#E1E457"/>
<rect x="1362" y="407" width="20" height="15" fill="#E1E457"/>
<rect x="1284" y="430" width="20" height="15" fill="#E1E457"/>
<rect x="1310" y="384" width="20" height="15" fill="#E1E457"/>
<rect x="1310" y="361" width="20" height="15" fill="#E1E457"/>
<rect x="1310" y="338" width="20" height="15" fill="#E1E457"/>
<rect x="1310" y="315" width="20" height="15" fill="#E1E457"/>
<rect x="1310" y="292" width="20" height="15" fill="#E1E457"/>
<rect x="1310" y="269" width="20" height="15" fill="#E1E457"/>
<rect x="1310" y="246" width="20" height="15" fill="#E1E457"/>
<rect x="1310" y="223" width="20" height="15" fill="#E1E457"/>
<rect x="1336" y="384" width="20" height="15" fill="#E1E457"/>
<rect x="1336" y="361" width="20" height="15" fill="#E1E457"/>
<rect x="1336" y="338" width="20" height="15" fill="#E1E457"/>
<rect x="1336" y="315" width="20" height="15" fill="#E1E457"/>
<rect x="1336" y="292" width="20" height="15" fill="#E1E457"/>
<rect x="1336" y="269" width="20" height="15" fill="#E1E457"/>
<rect x="1336" y="246" width="20" height="15" fill="#E1E457"/>
<rect x="1336" y="223" width="20" height="15" fill="#E1E457"/>
<rect x="1362" y="384" width="20" height="15" fill="#E1E457"/>
<rect x="1362" y="361" width="20" height="15" fill="#E1E457"/>
<rect x="1362" y="338" width="20" height="15" fill="#E1E457"/>
<rect x="1362" y="315" width="20" height="15" fill="#E1E457"/>
<rect x="1362" y="292" width="20" height="15" fill="#E1E457"/>
<rect x="1362" y="269" width="20" height="15" fill="#E1E457"/>
<rect x="1362" y="246" width="20" height="15" fill="#E1E457"/>
<rect x="1362" y="223" width="20" height="15" fill="#E1E457"/>
<rect x="1388" y="407" width="20" height="15" fill="#E1E457"/>
<rect x="1388" y="384" width="20" height="15" fill="#E1E457"/>
<rect x="1388" y="361" width="20" height="15" fill="#E1E457"/>
<rect x="1388" y="338" width="20" height="15" fill="#E1E457"/>
<rect x="1388" y="315" width="20" height="15" fill="#E1E457"/>
<rect x="1388" y="292" width="20" height="15" fill="#E1E457"/>
<rect x="1388" y="269" width="20" height="15" fill="#E1E457"/>
<rect x="1388" y="246" width="20" height="15" fill="#E1E457"/>
<rect x="1388" y="223" width="20" height="15" fill="#E1E457"/>
<rect x="1336" y="430" width="20" height="15" fill="#E1E457"/>
<rect x="1414" y="407" width="20" height="15" fill="#E1E457"/>
<rect x="1362" y="430" width="20" height="15" fill="#E1E457"/>
<rect x="1414" y="384" width="20" height="15" fill="#E1E457"/>
<rect x="1414" y="361" width="20" height="15" fill="#E1E457"/>
<rect x="1414" y="338" width="20" height="15" fill="#E1E457"/>
<rect x="1414" y="315" width="20" height="15" fill="#E1E457"/>
<rect x="1414" y="292" width="20" height="15" fill="#E1E457"/>
<rect x="1414" y="269" width="20" height="15" fill="#E1E457"/>
<rect x="1414" y="246" width="20" height="15" fill="#E1E457"/>
<rect x="1414" y="223" width="20" height="15" fill="#E1E457"/>
<rect x="1310" y="430" width="20" height="15" fill="#E1E457"/>
<rect x="1388" y="430" width="20" height="15" fill="#E1E457"/>
<rect x="1414" y="430" width="20" height="15" fill="#E1E457"/>
</svg>
