<svg width="60" height="58" viewBox="0 0 60 58" fill="none" xmlns="http://www.w3.org/2000/svg">
<g clip-path="url(#clip0_440_1681)">
<path fill-rule="evenodd" clip-rule="evenodd" d="M29.9106 0C13.3708 0 0 13.2212 0 29.5775C0 42.6521 8.56714 53.7194 20.452 57.6364C21.938 57.9309 22.4822 57 22.4822 56.217C22.4822 55.5313 22.4333 53.1809 22.4333 50.732C14.1129 52.4952 12.3802 47.2061 12.3802 47.2061C11.0431 43.7783 9.06184 42.8972 9.06184 42.8972C6.33857 41.0853 9.26021 41.0853 9.26021 41.0853C12.281 41.2813 13.8661 44.1214 13.8661 44.1214C16.5398 48.6262 20.8482 47.3534 22.5814 46.5697C22.8288 44.6599 23.6216 43.3377 24.4635 42.6034C17.8273 41.9177 10.8453 39.3714 10.8453 28.0102C10.8453 24.7783 12.0331 22.134 13.9151 20.0775C13.6182 19.3432 12.578 16.3065 14.2127 12.2422C14.2127 12.2422 16.7382 11.4585 22.4327 15.2782C24.8707 14.6308 27.385 14.3015 29.9106 14.2987C32.4361 14.2987 35.0106 14.6418 37.388 15.2782C43.0831 11.4585 45.6086 12.2422 45.6086 12.2422C47.2433 16.3065 46.2024 19.3432 45.9055 20.0775C47.8371 22.134 48.9759 24.7783 48.9759 28.0102C48.9759 39.3714 41.9939 41.8684 35.3082 42.6034C36.398 43.5337 37.3384 45.2963 37.3384 48.0877C37.3384 52.0541 37.2894 55.2374 37.2894 56.2164C37.2894 57 37.8343 57.9309 39.3196 57.637C51.2045 53.7188 59.7716 42.6521 59.7716 29.5775C59.8206 13.2212 46.4008 0 29.9106 0Z" fill="#24292F"/>
</g>
<defs>
<clipPath id="clip0_440_1681">
<rect width="60" height="57.6923" rx="28.8462" fill="white"/>
</clipPath>
</defs>
</svg>
