<svg width="129" height="127" viewBox="0 0 129 127" fill="none" xmlns="http://www.w3.org/2000/svg">
<g clip-path="url(#clip0_437_184)">
<path d="M18.6559 73.4384C16.8876 101.538 38.6823 124.889 63.8369 125.373C90.185 125.857 113.439 101.187 110.654 71.7673" stroke="black" stroke-width="2.75" stroke-miterlimit="10" stroke-linecap="round"/>
<path d="M109.371 93.2711C115.207 90.2808 118.478 86.9826 120.114 85.0477C121.617 83.2887 122.28 82.0135 122.678 80.6502C123.474 77.7039 122.634 75.1534 122.059 73.8341" stroke="black" stroke-width="2.75" stroke-miterlimit="10" stroke-linecap="round"/>
<path d="M21.4411 96.0416C19.3633 95.6898 17.816 95.0742 16.6224 94.5025C8.22276 90.1929 9.01851 79.9467 9.10693 78.7594" stroke="black" stroke-width="2.75" stroke-miterlimit="10" stroke-linecap="round"/>
<path d="M18.1254 22.2074C12.4226 25.5935 7.78068 30.5627 6.63126 37.9505C5.48184 45.3383 6.94072 53.6935 7.60385 55.6284" stroke="black" stroke-width="2.75" stroke-miterlimit="10" stroke-linecap="round"/>
<path d="M23.2536 14.1599C23.2536 14.1599 22.7673 27.9241 19.3633 32.5855" stroke="black" stroke-width="2.75" stroke-miterlimit="10" stroke-linecap="round"/>
<path d="M42.5284 49.6478C42.5284 49.6478 30.9016 51.3629 28.8681 58.7507C26.8345 66.1385 25.9061 67.6336 24.5356 67.6336" stroke="black" stroke-width="2.75" stroke-miterlimit="10" stroke-linecap="round"/>
<path d="M55.1278 29.947C55.1278 29.947 51.4585 48.9882 47.6124 51.099" stroke="black" stroke-width="2.75" stroke-miterlimit="10" stroke-linecap="round"/>
<path d="M64.0137 29.947C64.0137 29.947 58.4877 47.537 55.0836 50.4834" stroke="black" stroke-width="2.75" stroke-miterlimit="10" stroke-linecap="round"/>
<path d="M75.1542 32.9374C75.1542 32.9374 66.5778 50.9232 64.0137 51.1431" stroke="black" stroke-width="2.75" stroke-miterlimit="10" stroke-linecap="round"/>
<path d="M70.8218 55.1447C70.8218 55.1447 79.7077 46.4816 82.0065 40.2372" stroke="black" stroke-width="2.75" stroke-miterlimit="10" stroke-linecap="round"/>
<path d="M39.7875 17.0624C39.7875 17.0624 28.1607 24.6701 25.8619 32.9374C23.563 41.2047 20.8663 46.9214 21.3084 52.8581" stroke="black" stroke-width="2.75" stroke-miterlimit="10" stroke-linecap="round"/>
<path d="M47.5682 17.0624C47.5682 17.0624 43.6779 24.8899 41.6443 34.9602" stroke="black" stroke-width="2.75" stroke-miterlimit="10" stroke-linecap="round"/>
<path d="M27.8071 14.4678C29.3986 13.984 42.7937 7.12393 50.6186 6.90405" stroke="black" stroke-width="2.75" stroke-miterlimit="10" stroke-linecap="round"/>
<path d="M66.622 1.67102C66.622 1.67102 59.7697 7.82753 52.4311 9.49858" stroke="black" stroke-width="2.75" stroke-miterlimit="10" stroke-linecap="round"/>
<path d="M73.6069 3.60596C73.6069 3.60596 97.8331 9.93837 99.3804 15.1274" stroke="black" stroke-width="2.75" stroke-miterlimit="10" stroke-linecap="round"/>
<path d="M89.0798 13.7642C89.0798 13.7642 97.0816 24.7579 103.669 26.0332" stroke="black" stroke-width="2.75" stroke-miterlimit="10" stroke-linecap="round"/>
<path d="M114.853 25.5496C114.853 25.5496 123.916 36.2795 124.535 43.7552C124.535 43.7552 128.47 59.8501 126.966 65.1711C125.463 70.4921 123.253 70.9318 125.021 73.5703" stroke="black" stroke-width="2.75" stroke-miterlimit="10" stroke-linecap="round"/>
<path d="M112.333 42.0402C112.333 42.0402 116.003 51.5828 114.632 58.6627" stroke="black" stroke-width="2.75" stroke-miterlimit="10" stroke-linecap="round"/>
<path d="M113.615 63.632C113.615 63.632 115.914 67.2379 114.898 72.1191" stroke="black" stroke-width="2.75" stroke-miterlimit="10" stroke-linecap="round"/>
<path d="M101.105 17.2822C101.105 17.2822 109.327 22.5153 113.173 22.5153H123.562" stroke="black" stroke-width="2.75" stroke-miterlimit="10" stroke-linecap="round"/>
<path d="M93.4122 29.947C93.4122 29.947 99.1151 44.151 96.1532 49.6479" stroke="black" stroke-width="2.75" stroke-miterlimit="10" stroke-linecap="round"/>
<path d="M69.4955 8.5752C69.4955 8.5752 73.6069 13.1486 74.4911 19.2611" stroke="black" stroke-width="2.75" stroke-miterlimit="10" stroke-linecap="round"/>
<path d="M42.3958 84.0364C44.813 84.0364 46.7724 82.2448 46.7724 80.0347C46.7724 77.8246 44.813 76.033 42.3958 76.033C39.9787 76.033 38.0192 77.8246 38.0192 80.0347C38.0192 82.2448 39.9787 84.0364 42.3958 84.0364Z" stroke="black" stroke-width="2.75" stroke-miterlimit="10" stroke-linecap="round"/>
<path d="M31.83 75.0214C34.1289 74.1859 37.6213 73.1745 42.0422 72.9986C46.7724 72.7787 50.5744 73.5703 53.0058 74.2739" stroke="black" stroke-width="2.75" stroke-miterlimit="10" stroke-linecap="round"/>
<path d="M85.8526 84.0364C88.2698 84.0364 90.2293 82.2448 90.2293 80.0347C90.2293 77.8246 88.2698 76.033 85.8526 76.033C83.4355 76.033 81.476 77.8246 81.476 80.0347C81.476 82.2448 83.4355 84.0364 85.8526 84.0364Z" stroke="black" stroke-width="2.75" stroke-miterlimit="10" stroke-linecap="round"/>
<path d="M75.2426 75.0214C77.5415 74.1859 81.0339 73.1745 85.4548 72.9986C90.1851 72.7787 93.987 73.5703 96.4184 74.2739" stroke="black" stroke-width="2.75" stroke-miterlimit="10" stroke-linecap="round"/>
<path d="M4.19978 52.8141C4.19978 52.8141 0.839944 62.7964 1.90094 65.6988C2.96195 68.6011 3.89032 69.0849 4.19978 74.3179" stroke="black" stroke-width="2.75" stroke-miterlimit="10" stroke-linecap="round"/>
<path d="M17.2855 69.1727C12.1573 72.0751 14.6772 77.0003 11.2289 77.2641C7.78066 77.528 5.17236 77.2641 5.17236 77.2641" stroke="black" stroke-width="2.75" stroke-miterlimit="10" stroke-linecap="round"/>
<path d="M61.538 104.221C62.1127 104.397 62.9969 104.573 64.0137 104.617C65.2073 104.617 66.1357 104.441 66.7546 104.265" stroke="black" stroke-width="2.75" stroke-miterlimit="10" stroke-linecap="round"/>
</g>
<defs>
<clipPath id="clip0_437_184">
<rect width="129" height="127" fill="white"/>
</clipPath>
</defs>
</svg>
