<svg width="59" height="59" viewBox="0 0 59 59" fill="none" xmlns="http://www.w3.org/2000/svg">
<rect width="59" height="58.6471" rx="29.3235" fill="#1D9BF0"/>
<g clip-path="url(#clip0_446_1690)">
<path d="M44.2185 22.4538C44.2403 22.7692 44.2403 23.0846 44.2403 23.4028C44.2403 33.1006 36.8661 44.2852 23.3821 44.2852V44.2793C19.3989 44.2852 15.4984 43.1429 12.1451 40.9891C12.7243 41.0588 13.3064 41.0937 13.89 41.0952C17.1909 41.0981 20.3976 39.9892 22.9945 37.9474C19.8576 37.8878 17.1068 35.8401 16.1458 32.8507C17.2447 33.0629 18.3769 33.0193 19.4555 32.7242C16.0355 32.0325 13.575 29.0242 13.575 25.5305C13.575 25.4985 13.575 25.468 13.575 25.4374C14.594 26.0057 15.735 26.321 16.9021 26.3559C13.6809 24.2007 12.688 19.9106 14.6332 16.5564C18.3551 21.1415 23.8466 23.9289 29.7416 24.2239C29.1508 21.6749 29.9579 19.0037 31.8624 17.2118C34.815 14.4331 39.4587 14.5756 42.2342 17.5301C43.8759 17.206 45.4495 16.6029 46.8895 15.7484C46.3422 17.4473 45.1969 18.8904 43.6669 19.8074C45.12 19.6359 46.5397 19.2464 47.8766 18.652C46.8924 20.1286 45.6527 21.4147 44.2185 22.4538Z" fill="white"/>
</g>
<defs>
<clipPath id="clip0_446_1690">
<rect width="36" height="29.6471" fill="white" transform="translate(12 15)"/>
</clipPath>
</defs>
</svg>
