<svg width="60" height="59" viewBox="0 0 60 59" fill="none" xmlns="http://www.w3.org/2000/svg">
<rect width="60" height="59.0005" rx="29.5002" fill="white"/>
<path d="M16.2196 46.9894C15.1115 46.9894 14.0049 46.9956 12.8968 46.9862C12.5944 46.9831 12.2208 47.0957 12.0499 46.7344C11.8916 46.4027 12.1464 46.143 12.3095 45.8802C16.5394 39.036 20.7724 32.1918 25.0023 25.3477C27.5699 21.1911 30.1424 17.0392 32.6911 12.8701C33.0567 12.2663 33.4984 11.9894 34.2187 12.0003C36.2228 12.0316 38.2269 12.0066 40.2311 12.0144C40.6648 12.016 41.1777 11.8939 41.4326 12.3883C41.6621 12.831 41.336 13.1861 41.1207 13.535C35.626 22.4551 30.1281 31.3705 24.6318 40.2891C23.4398 42.2242 22.2367 44.1531 21.07 46.1024C20.6917 46.7328 20.2072 47.0222 19.4616 46.9972C18.382 46.9612 17.2992 46.9878 16.218 46.9878L16.2196 46.9894Z" fill="#2C9DD9"/>
<path d="M33.7262 46.9879C32.5927 46.9879 31.4577 47.0035 30.3242 46.9816C29.528 46.9676 29.2874 46.5295 29.71 45.8615C32.9331 40.7585 36.1672 35.6618 39.3855 30.5556C39.6657 30.1113 39.9998 29.9079 40.5427 29.9142C42.6782 29.9377 44.8153 29.9189 46.9509 29.9252C47.9529 29.9283 48.2727 30.4289 47.755 31.2533C44.5906 36.3 41.4071 41.3358 38.2363 46.3809C37.9529 46.8299 37.5698 47.002 37.0474 46.9942C35.9393 46.9785 34.8327 46.9895 33.7246 46.9895L33.7262 46.9879Z" fill="#2C9DD9"/>
</svg>
